<?xml version="1.0" encoding="utf-8"?>
<!-- Generator: Adobe Illustrator 18.1.1, SVG Export Plug-In . SVG Version: 6.00 Build 0)  -->
<svg version="1.1" id="Layer_1" xmlns="http://www.w3.org/2000/svg" xmlns:xlink="http://www.w3.org/1999/xlink" x="0px" y="0px"
	 viewBox="0 104 512 313" enable-background="new 0 104 512 313" xml:space="preserve">
<g id="Layer_1_1_">
	<circle id="Sea" fill="#2A8DC4" cx="372.5" cy="286.8" r="117.4"/>
	<g id="Land">
		<path fill="#6DAA4D" d="M346.7,172.3c-3.8,0.9-7.5,1.9-11.2,3.1C338.9,176,347.3,174.8,346.7,172.3z"/>
		<path fill="#6DAA4D" d="M327.2,178.5c-1.6,6.7,4.5,5.8,5,0C330.7,178.5,328.7,178.2,327.2,178.5z"/>
		<path fill="#6DAA4D" d="M318.1,183c0.9,3.1,3,4.1,4,6.8c1.2-0.8,2.1-2,2.6-3.1c-0.9-2.1-0.7-5.1-1.5-6.5c-0.9,0.4-1.8,0.9-2.7,1.3
			c0.2,0.2,0.5,0.5,0.7,0.8C319.3,182.8,320.3,183.3,318.1,183z"/>
		<path fill="#6DAA4D" d="M362.5,197.2c-1-4.1-4.4-6-7.3-8.4c-3.7-3-5.2-5.6-8.8-9.2c0.1,1.4,2.5,5.9,1.3,7.2
			c-2.7,2.8-2.3-3.8-2.9-4c-5.5-2.6-5.5-0.5-6,5.2c-2.5-2.3,0.7-8.8-2-8.1c-3.6,0.9-4.1,8.5-0.9,9.9c-5.2,5.6,9,3.4,11,4.6
			c4.3,2.7,1.6,5.2,3.4,8.8c0.4,0.7,2.7-1.2,3.3,0.7c0.5,1.8,1.4,3,2,4.5c-2.8,0.8-5.6,1.5-7.4,3.6c6.4,2.1,9.1,5.4,15.2,8.2
			c-0.9-1.3-1.5-3.9-2.5-5.2c4.1,3.9,4.3,0.9,4-2.5c-0.1-1.2-2.8-1.7-3.1-3.3c-0.9-4.8,2.9-0.7,2.7-0.6c0.6-0.4,1.7,4.1,3.6,0.2
			c1.6-3.3,0.5-2.3-0.9-4.9C365.4,201.2,358.6,201.4,362.5,197.2z"/>
		<path fill="#6DAA4D" d="M362.2,390.2c0.4-1.6,3.4-10.3,2.3-12.8c1.4-0.4,8.1-4,9.3-5.2c0.9-0.9,0.9-4,0.9-3.9c1.4-1.4,3-2,4.9-4
			c1.3-1.3,3.7-3.9,4.6-5.6c0.9-1.6,1.1-5.3,2-6.3c3.7-3.9,6.7-2.3,9.6-7.2c2-3.4,1.6-7.2,3.1-11c1.5-3.6,5.2-3.1,2.4-7.4
			c-3.2-5-12.8-3.4-17.4-7.4c-8.7-7.8-18.6-15.3-31.9-13.2c-1.7,0.3-3.7,3.8-6.7,2.7c-6.7-2.5-0.7-4.9-3.8-8.1
			c-0.5-0.6-4.8-1.3-4.6-0.9c0.2,0.2-1.8-3.4-1.8-3.5c-1.1-1.3,4.9-3.5-2-3.5c-1.2,0-1.3,4-4.9,3.5c-2.7-0.4-3.1-0.9-4.5-3.4
			c-2.4-3.8-0.9-8.9,2.5-11.4c1.7-1.3,9.7-1.8,11.6-1.2c3.9,1.3,3.8,4.4,7.2,7.1c1.2-3.3-1.8-5.7-1-8.6c0.7-2.8,2.8-2.3,4.5-4.6
			c1.6-2.5,1.6-3.2,3.2-6.2c1.7-3.1,1.5-5.9,5.9-6.2c-1.8-3.4,2.4-3.6,4.4-7c0.5,1,2.3,2.1,2.8,3.8c2.6-1.6,5.3-2.5,5.7-5.5
			c-3.4,3.3-7.7,0.3-4.5-3.5c-1.5-0.2-3-0.8-5.3,0c3.8-7.1,17.1-0.9,13.4-10.8c-0.3-0.8-4-4.8-5.1-6.3c-1.6-2.4-3-4.8-4-7.9
			c-0.6,2.5-2.2,4.5-4.5,5.6c-3-5.9-2.9-12.2-12.3-11.5c-0.3,3.7,2.3,7.3-1,9.2c4,2.5,2.7,10.3,0.2,13.2c-4.9,5.7-0.9-0.2-4.5-3.5
			c-2.8-2.7-15.4-5.6-16.8-11.6c-1-4.6,8.7-13.7,10.9-15.9c2.7-2.7,5.2-4.4,5.9-7.8c0.5-2.6-0.7-8.1-3.6-4.9
			c-2.6,5.2-7.2-0.9-9.5-3.8c-1-1.3-0.7-8.4-4.2-3.8c-2.3,3.1,1.6,5.6,1.6,7.4c0,3.8,2,1.7-1.3,5c-2.1,2-4.1,2.8-7,2.1
			c-2.6-0.5-12.5-9.6-6.5,1.4c-6.2-0.9-11.1-5.3-16.9-8c-9.4,8.1-17.5,17.7-24,28.3c1.7,1.1,3.2,2.3,4.2,3.3
			c3.1,2.9,5.8,8.1,8.7,11.6c1.4,1.6,6.1,6.1,6.7,7.9c2.4,7.5-3.9,14.9,2,22.8c1.9,2.5,4.5,3.8,6.4,6.3c3.1,3.9,3.4,8.7,8,11.7
			c-2.2-3.7-4-7.7-6.2-11.4c3,0.3,9.5,8.5,11.7,11.9c1.8,2.7,0.6,3.7,2.8,5.7c2.1,2,4.6,2.5,7.2,3.5c3.8,1.5,8,1.1,11.6,3.5
			c3.6,2.4,5.9,6,9.9,8.1c1.1,0.5,2.3-3.7,4.5,0.2c2,3.8-1.3,4.5-2.4,7.7c-2.3,6-1.3,9.9,2.9,15.9c4.9,7,9.5,8.8,8.9,18.4
			c-0.4,7-2.6,13.3-3.3,20.3c-0.4,4.1-3.7,24.1,1.4,29.7c2.1,0.3,4.1,0.5,6.3,0.6c0.3-0.2,0.7-0.3,1-0.5
			C357.9,397.2,360.8,395.8,362.2,390.2z"/>
		<path fill="#6DAA4D" d="M299.1,194.2c0.2,0.2,0.4,0.3,0.5,0.5c0.2-0.2,0.4-0.3,0.6-0.5C299.9,194.2,299.5,194.3,299.1,194.2z"/>
		<path fill="#6DAA4D" d="M313.1,196.6c0.7-0.2,3.9,0.9,4.9,1c0.2-1.6-0.4-0.5,1.2-3.1c-4.4-1.8-5.1-5.8-4.7-9.9
			c-0.9,0.5-1.9,1.1-2.8,1.6c0.2,0.7,0.3,1.4,0.5,2c-1.3,0.1-2-0.2-2.6-0.9c-2,1.3-4,2.6-5.9,4c0.9,0.1,1.7,0.3,2.3,0.9
			c-2,0.5-3.7,1.6-5.9,1.7c-0.2,0.2-0.4,0.3-0.6,0.5c3.3,2.7,4.5,3.9,7.9,4.1C307.2,198.8,313.1,196.6,313.1,196.6z"/>
		<path fill="#6DAA4D" d="M339.2,209.3c-3.2,9.8,3.1,3.1,8.8,7.3C346.3,213.1,342.5,211.5,339.2,209.3z"/>
		<path fill="#6DAA4D" d="M342.8,216.6c-0.5,0.9-1.5,1.6-2,2.5C343.9,219,342.5,217.8,342.8,216.6z"/>
		<path fill="#6DAA4D" d="M340.8,290.4c1.2,2.6,10.3,5.3,12.5,3.4C349,292.6,345.4,289.7,340.8,290.4z"/>
		<path fill="#6DAA4D" d="M354.8,295.1c-0.5,0.6-0.9,1.3-1.4,1.9c2.3,0.2,4.8,0,7-0.7C358.3,294.2,357,294.5,354.8,295.1z"/>
		<path fill="#6DAA4D" d="M481.5,259.5c-0.8,1.6-0.8,3.9,1.6,5.5c1.9,0.9,3.4,1.6,5.2,2.1c-0.5-3.2-1.2-6.3-2-9.4
			C484.3,257.3,482.9,258.1,481.5,259.5z"/>
		<path fill="#6DAA4D" d="M452,242.5c-5,4.4-7.8,11.1-6.3,17.5c-6.2,0.8-9.9-3.8-9.6,4.2c0.2,7.5,6.3,6.8,10.8,2.5
			c3.4-3.3,2.3-8,9-8.6c3.1-0.2,5.2,0.8,7,2.6c2.1,1.2,2.9,5.1,6,5.9c0.8-3.9-5.5-5.5-3.1-10.2c3.9,3.9,7,8.6,12.5,10.2
			c0.8-3.9-2.3-6.3-3.9-9.4c4.5,0.6,7.8,0.2,11-2c-2-6.9-4.5-13.5-7.5-19.8c-6.4,2.2-13.5,3.2-20.3,3.6
			C455.6,239.8,453.8,241,452,242.5z"/>
		<path fill="#6DAA4D" d="M458,227.4c1.6,0,3.1,0.8,3.9,1.6c2.3,1.6,0,6.3,1.6,6.3c3.9,0,5.5-5.5,5.5-8.6c0-2,0-4.2,0.2-6.5
			c-2.6-3.7-5.3-7.3-8.3-10.6c-1.4,3.5-2.9,7-5.1,10.1C453.3,222.7,454.9,227.4,458,227.4z"/>
		<path fill="#6DAA4D" d="M489.2,275.3c-6.7,0.8-12.8,1.5-19.5,2.3c-4.7,0.8-7.8-3.9-11-7c-1.6-0.8-3.1-0.8-4.9-1.1
			c-1.5,0.1-3.1,0.4-4.8,0.9c-5,1.6-10.5,5-13.3,7.6c-0.9,0.9-0.6,3-1.6,4c-1.4,1.6-3.5,1.6-4.9,3.4c-2.7,3.5-2.2,7-2.3,11
			c-0.3,7.2,0.7,11.7,7.4,15.3c6.7,3.7,13.3-2.3,18.9,0.9c1.7,2.3,4.4,3.3,7.3,2.9c-0.9,1.1-1.7,3.4-0.9,5c2.3,3.9,5.5,8.6,3.1,13.3
			c-4.5,9.1-4.1,20.7,0.1,27.9c16.9-20.4,27.1-46.5,27.1-75C489.8,282.9,489.6,279,489.2,275.3z"/>
		<path fill="#6DAA4D" d="M441.1,245.7c8.5,0.2,7.8-2.1,5.7-7.2c-0.6-1.6-1.3-3.4-2.1-5.3c-0.7-1.9-1.5-3.8-2.2-5.6
			c-2,1.2-2.7,3-3.1,5.3c1.5,1.8,2.2,4.1,2.4,6.4C442.1,241.7,441.8,243.9,441.1,245.7z"/>
		<path fill="#6DAA4D" d="M437.7,236.3c-2.7,1.5-3.4,4.3-2.7,7.3C438.6,243,440.4,238.4,437.7,236.3z"/>
		<path fill="#6DAA4D" d="M429,207.1c-2.3,0-7,3.1-9-0.5c-0.5,2.1-0.2,4.8,0.8,7c2,0.5,3.5,0.5,5.1,0.5
			C429.8,214.1,432.9,207.9,429,207.1z"/>
		<path fill="#6DAA4D" d="M381.3,194.7c-0.2,9.4-2.7,24.3,8.9,29.7c2-0.4,2.9-3.3,3.8-6.5c2.1-12.4,16.2-16.4,25.6-22.6
			c-3.1,0.8-7-3.9-3.1-5.5c1.6-0.8,2.3,2.3,4.7,3.1c-1.1-4.5-0.6-8.6,0.3-12.8c-14.8-6.8-31.3-10.6-48.7-10.7c2.6,4,4,8.8,5.8,13.2
			C379.9,185.9,381.5,190.9,381.3,194.7z"/>
	</g>
	<g id="Clouds">
		<path fill="none" d="M472.7,225.1c-0.1,0.1-0.2,0.1-0.3,0.2l0,0C472.5,225.2,472.6,225.2,472.7,225.1z"/>
		<path fill="#FFFFFF" d="M291,241.8c6.3-9.4,9.6-16.2,21.3-20.1c0,0,0-3.9,1.6-5.5c-2.3,3.1,5.2-2.4,7.5-3.2
			c2.3-0.8,0.3,5.6,1.1,3.2c0-2.3,14.6-9.2,11.4-12.3c0,0.7-13.2,3.9-15.5,5.1c-0.1,0.1-0.2,0.2-0.4,0.3c0-0.1,0.2-0.2,0.4-0.3
			c1-1.1,0.1-3.8-2.6-2.5c0.5-0.7,1.9-7.5,2.7-8.3c-5.9-0.6-8.2,5-9.7,10.5c-0.5,1.8-0.9,3.6-1.3,5.2c2.3-0.8,3.1-3.1,4.5-4.6
			l-1.1,2.7c-5.7,12.8-31.2,24.1-27.2,35.9c3.9-1.6,4.4-2.7,5.2-4.2C288.8,244.4,291,241,291,241.8z M286.4,241
			C286.4,241,286.4,241.1,286.4,241C286.4,241.1,286.4,241.1,286.4,241l-0.1,0.2l0,0C286.3,241.2,286.3,241.2,286.4,241
			C286.4,241.1,286.4,241.1,286.4,241C286.4,241.1,286.4,241,286.4,241C286.5,241,286.5,241,286.4,241
			C286.5,241,286.5,241,286.4,241z"/>
		<path fill="#FFFFFF" d="M286.4,241.1C286.4,241.2,286.4,241.2,286.4,241.1C286.4,241.2,286.4,241.2,286.4,241.1z"/>
		<path fill="#FFFFFF" d="M286.4,241.2C286.4,241.3,286.4,241.3,286.4,241.2L286.4,241.2z"/>
		<path fill="#FFFFFF" d="M286.5,241C286.5,241,286.5,241,286.5,241L286.5,241z"/>
		<path fill="#FFFFFF" d="M289.9,261.7C288.9,260.5,288.4,260.7,289.9,261.7L289.9,261.7z"/>
		<path fill="#FFFFFF" d="M324.8,294.8c-0.5,0-0.9,0-1.3,0c-0.4,0-0.8,0-1,0C323.2,294.8,324,294.8,324.8,294.8z"/>
		<path fill="#FFFFFF" d="M292.7,260.1c0.8,2.3,2.3,4.7,3.9,6.3c-3.1-2.3-4.7-5.5-7-7.8c0.8,1.6,1.6,2.3,1.6,3.9
			c-0.5-0.2-0.9-0.5-1.3-0.7c0.1,0.2,0.2,0.2,0.3,0.4l0.2,0.4c7,10,17.9,17.1,26.5,25.7c-3.1,0.8-5.5-0.8-7.8-2.3
			c0.8,3.9,4.7,4.7,6.3,6.7c2.4,1.2,5.2,1.8,8,2c0.7-0.1,1.3-0.2,1.3-0.8c0-2.3-1.6-3.9-0.9-6.2c0.9,1.5,2.4,2.3,4,1.5
			c0.8-0.8,1.6-2.3,0.8-3.1C315.4,278.1,300.5,273.4,292.7,260.1z"/>
		<path fill="#FFFFFF" d="M291.9,330.5c0.8-1.6,2.3-2.3,3.9-3.1c-6.3,19.6,7.8,29.7,25.1,32.3c2,1.2,3.9,2.5,5.5,4.1
			c6.3,6.1,8.5,14.9,2.3,26.2c4.8,0,7.8-5.5,8.5-12.5c0-5.2-5.8-16.1-8.9-17.9c-1.6-0.9-3.4-1.6-5.3-2c-6.9-1.2-6.3,0.2-8.7-6
			c-3.1-11-0.5-5.3,5-7.7c-0.8-1.6-1.6-2.3,0-3.9c2.5-0.9,4.1-2.3,5.1-3.7c2.7-4.3-1.1-10.2-5.7-14.2c-1.9-2.2-3.8-3.9-5.9-5.1
			c-5-3-10.5-2.9-16-0.9c-1.9,0.7-3.7,1.6-5.6,2.7c-4,2.3-7.1,4.7-9.5,8.6c0.1-0.1,0.2-0.2,0.3-0.2c1-1.3,2-2.6,2.8-3.8
			c-0.7,1.5-1.5,2.9-2.8,3.8c-4.3,5.6-9.5,11.5-16.1,8.8c0.5,0.9,0.9,1.9,1.3,2.8c7.9-1,15-6,20-13c-3,12.7,0.4,25.3-3.3,38
			c0.4,0.5,0.8,0.9,1.2,1.3C297.9,360.1,285.9,341,291.9,330.5z"/>
		<path fill="#FFFFFF" d="M315.9,296.8c0.9,0.3,1.8,0.5,2.7,0.9C317.5,297.1,316.8,296.6,315.9,296.8z"/>
		<path fill="#FFFFFF" d="M297.3,271.7c0.2,0.4,0.5,0.8,0.7,1.2c0,0,0,0,0.1,0L297.3,271.7z"/>
		<path fill="#FFFFFF" d="M278.2,224.9c1.7,0.3,3.4,0.5,4.9,0.3c4.1-0.4,5.7-4.3,7.2-6.8c1.1-2,2-4.2,2.6-6.5
			c1.1-4,1.5-8.1,0.8-12.1c-0.8,0.7-1.6,1.5-2.3,2.2c-0.2,0.8-0.4,1.6-0.9,2.4c-0.3-0.2-0.6-0.4-0.9-0.5c-0.9,0.9-1.7,1.8-2.6,2.7
			c0,0.4,0,0.7-0.1,1.1c-0.2,1.8-0.5,3.5-1.2,5.1c-2,4.5-4.5,5-7.2,3.8c-1.8,2.3-3.4,4.8-5,7.3C274.9,224.3,276.6,224.6,278.2,224.9
			z"/>
		<path fill="#FFFFFF" d="M287.3,318.2c1.9-1.6,3.7-3.4,5.4-5.2c0.2-2.7,1.6-1.8,0,0l0,0c0,0.1,0,0.2,0,0.3
			c2.3-4.6,5.3-8.5,6.2-13.8c-0.2,0.5-0.7,0.6-0.7,1.3c0-2.3,2.1-2.8,5.2-3.6c0,0,0.9,16.4,15.9,9.9c-4-1.3-6.9-4.4-9.6-7.1
			c-0.3-0.2-0.4-0.3-0.2-0.2c-0.4-0.4-0.8-0.9-1.2-1.3c0.6,0.6,0.8,0.8,1.3,1.3c1.3,0.6,12.4,7.1,23,5.8c-6.3-2.3-12.5-3.1-18-7.8
			c0.5-0.5,0.9-0.7,1.3-0.9c-1.9-0.6-3.8-1.3-5.6-2.3c-2.7-1.5-5-3.7-6.6-6c0.8,0,0.8,0,1.6,0c-3.1-3.1-11.7-12.7-14.1-4.9
			c-0.8,2.3,1.6,4.6,0.8,7.8c-2.3-3.1-4.7-6.3-6.3-10.2c-2.9-9.5,7.8-10.2,13.7-6.3c-0.5-0.5-1-1.2-1.4-2c-6-3.5-8.4-9.7-12.3-14.4
			c0.8,1.6,2.3,3.9,1.6,4.7c-3.1,3.9-3.9-3.9-7.8-4.7c0,0.8,0.8,1.6,0.8,2.3c-3.1-3.9-7-7-10-11.4c-1-1.4-2-2.8-2.9-4.2
			c-0.9-1.6-1.8-3.2-2.6-4.9c-2.9,6.7-5.2,13.6-6.7,20.8c0.3,0.5,0.7,1.2,1,1.7c1.1,1.9,2.3,3.8,3.2,5.8c4.7,11,18.8,20.4,15.7,32.9
			c-2,7-7.7,11.1-14.2,14.6c-1.3,0.7-2.7,1.3-4.1,2c1.3,4.8,2.9,9.4,4.8,13.9C271.8,326.5,281.5,325.9,287.3,318.2z"/>
		<path fill="#FFFFFF" d="M309.8,299.8c0.1,0,0.1,0.1,0.2,0.1c-0.2-0.2-0.2-0.2-0.3-0.3c0,0,0,0-0.1,0
			C309.6,299.7,309.7,299.8,309.8,299.8z"/>
		<path fill="#FFFFFF" d="M299.4,274.8c0.3,0.3,0.7,0.6,1.2,0.9C300.2,275.4,299.8,275.1,299.4,274.8z"/>
		<path fill="#FFFFFF" d="M299.4,278.1c-3.4-1.2-0.5,1.3,3.1,5.7c3.7,2,0.5-1.2-1.3-3.8L299.4,278.1z"/>
		<path fill="#FFFFFF" d="M298.4,280c-1.9-1.3-3.1-2.2-3.4-2.3c-1.6-0.1,1.2,0.9,2.8,2.3H298.4z"/>
		<path fill="#FFFFFF" d="M298.6,281.1c-0.9-0.7-1.2-0.7-2-1.1L298.6,281.1z"/>
		<path fill="#FFFFFF" d="M474,229.1c-2,0.8-3.9,1.6-5.9,2.3c-2.3,0.8-5.2,1.6-7.8,3c-2.6,1.3-4.7,3.3-5.5,6.5
			c2.3-0.8,4.7-1.2,7.1-1.5c2.3-0.3,4.8-0.6,7.3-1.3c2.4-0.4,4.8-0.8,7.1-1c0.7-0.1,1.5-0.2,2.2-0.2c-1.3-2.7-2.7-5.3-4.1-7.9
			C474.3,228.9,474.1,229,474,229.1z"/>
		<path fill="#FFFFFF" d="M472.5,225.5c-0.1-0.1-0.1-0.2-0.2-0.2c-0.3,0.2-0.6,0.4-0.9,0.5C471.8,225.8,472.2,225.6,472.5,225.5z"/>
		<path fill="#FFFFFF" d="M424.3,247c-0.1,0.2-0.2,0.3-0.3,0.5c0.1,1.2,0.2,2.3,0.3,3.4C424.3,249.3,424.3,248.6,424.3,247z"/>
		<path fill="#FFFFFF" d="M330.4,195.3c3.2-3.2,7-3.8,10.9-4.8c0.7-0.5,1.6-0.7,2.4-0.7c-0.8,0.2-1.6,0.5-2.4,0.7
			c-0.6,0.4-1.2,0.9-1.5,1.6c15.7-6.3,31.3-12.5,48.5-12.5c-11,1.6-22.7,2.3-32.1,8.6c2.3-0.8,3.9-1.6,6.3-1.6
			c-3.1,0.8-4.7,2.3-7.8,3.1c1.6,0,2.3,0,3.9-0.8c-7,4.7-19.6,9.4-14.9,19.6c1.2,2.1,2.7,3.8,4.6,5.3c4.5,0.3,10,4,13.4,6.4
			c2.2,3.6,1.9,4.4,0.2,4.2c1.7,2.1,3.1,3.5,1.4,1.6c8.6,5.5-0.8-6.7,7.8-1.2c-1.6-3.1-5.5-3.1-7.8-5.5c3.9,0,5.5,5.5,9.4,3.1
			c-1.6-1.6-3.9-0.8-5.5-3.1c3.1,1.6,1.6,0.8-3.9-4.7c9.4,3.9,14.9,5.5,18,15.7c3.1-5.5-4.7-8.6-7.8-11.7c8.6-0.8,14.9,4.7,22.7,7
			c-5.5-7.8-14.9-10.2-22.7-15.7c-1.6-0.8-2.3-2.3-1.6-3.9c7.8-7.8,19.6-8.6,30.5-7c16.4,1.6,47,16.4,45.4,16.4
			c2.3,1.6,2.8,4.2,0.7,3.8c-2.1-0.4-4.1-0.8-6.3-1.3c-4.6-0.9-13,2-17.7,0.5c7,1.6,3.2-6.4,10.3-5.6c-14.1-1.6-18.3-13.8-27.7-1.3
			c-5.5,7.8,7,18.8,9.7,29.8c0.7,2.3,1.3,4.5,1.6,6.7c0.3,2.3,0.5,4.5,0.3,6.7c-0.1,2.7-0.1,5.4-0.1,8s0,5,0,7.3
			c0.2,2.1,0.6,4.1,1.1,5.9c0.5-1.7,0.9-3.5,1.4-5.3c0.5-3,1.4-6,2.3-9.1c0.9-3.1,1.6-6.2,1.6-9.4c-0.8,3.1-1.6,6.3-3.1,8.6
			c0.8-2.3,0.9-4.7,1.3-7c0.3-2.2-0.4-4.4,0.8-6.5c-0.1-0.9-0.2-1.7-0.2-2.6c-0.2-6.2-2.5-11.6-5.6-16.4c-0.7-0.8-1.3-1.6-1.7-2.6
			c0.6,0.9,1.2,1.7,1.7,2.6c2.7,3.1,6.3,5.6,6.9,9.9c-0.8-9.4,9.4-15.7,17.7-14.2c1.7,0.1,3.4,0.3,5,0.9c-2.7-0.5-5.2-0.5-7.4-0.1
			c-6.7,0.9-11.4,7.1-12.4,13.2c-0.5,2.2-1,4.5-1.3,6.7c-0.2,2.3-0.3,4.6-0.2,6.8c-0.3,2.2-0.6,4.3-0.9,6.4
			c-0.2,2.1-0.5,4.1-0.7,6.1c0,1.6,0.8,3.9,3.1,3.1c4.7-1.6,5.5-7.8,9.4-10.2c1.6-0.8,2.3,0.8,3.1,1.6c2-1.6,3.9-3.3,5.6-5.2
			c1.7-1.9,3.3-3.8,4.5-5.8c-5.5,0-10.2,2.3-15.7,3.9c0-11.7,11-17.2,21.3-18.3c2-0.5,4.1-0.9,6.1-1.3c-1.6-0.3-3.1-0.3-4.5-0.2
			c-1.1,0.2-2.3,0.5-3.4,0.6c-5.6,1.5-10.6,2.9-16.4,4.3c4.7-3.5,10.6-3.5,16.4-4.3c0.5-0.2,1.1-0.3,1.7-0.5
			c0.5-0.1,1.2-0.2,1.7-0.2c0.8-0.2,1.6-0.4,2.3-0.6c1.8-0.4,3.5-0.8,5.2-1.3c1.7-0.5,3.4-1.2,4.9-2c0.9-0.4,1.8-0.7,2.7-1
			c-0.1-0.1-0.1-0.2-0.2-0.2c-0.5,0.2-0.9,0.3-1.5,0.5c-2.6,0.5-5.1,1.6-7.6,2.6c-2.5,0.9-5.1,1.7-8,1.6c2.8,0,5.4-0.7,7.9-1.8
			c2.4-1.1,4.8-2.4,7.1-3.5c0.1,0,0.2-0.1,0.2-0.1c-0.2,0-0.4,0.1-0.6,0.1c0.5-0.2,1-0.4,1.6-0.7c-8.7-14.1-20.4-26.3-34.1-35.6
			c-2.7,0.7-5.6-0.6-8.5-1.3c1.8-0.5,4.3,0.1,6.4,0c-0.5-0.3-1-0.6-1.5-0.9c-4,0.5-8.2-0.1-12-0.5c1.6,0,3.1,0,4.7,0
			c1.3,0,2.7-0.5,3.5-1.7c-15.7-9.1-33.8-14.6-53.1-15.5c-4,2-8.2,3.4-11.5,0c-8.9,0.5-17.5,1.9-25.8,4.2
			C336.2,180.8,329.7,186.5,330.4,195.3z M429.3,196.9l-5.6-2.1c0.9-0.7,5.2,1.2,8,1.7C430.9,196.8,430.9,196.8,429.3,196.9z
			 M445.5,197.7c-3.1,1.6-6.3,0.8-9.2,0.6l-2.7-1.3C437.6,196.1,441.5,197.7,445.5,197.7z M432.9,193.8c-2.3,1.6-3.9-0.8-6.7,0.1
			l-4.3-2.2C425.9,192.2,429,194.5,432.9,193.8z M411.2,189.2l-8.1-0.3c-2.3-2.2-5.5,1.7-7.8-0.6
			C400.8,188.3,405.5,187.5,411.2,189.2z"/>
		<path fill="#FFFFFF" d="M360.7,249.2l1.3,1.1c4.3-1.3,5.9,4.2,9.8,5.8c1.6,0.8,3.1-0.8,3.1-1.6c-4.7-4.7-10.2-7.8-17.2-8.6
			C358.5,246.8,360,248.3,360.7,249.2z"/>
		<path fill="#FFFFFF" d="M362.1,252.2c0,2.2,2,5.8,3.8,5.6c4-0.5-0.9-3.1-1.6-5.6L362.1,252.2z"/>
		<path fill="#FFFFFF" d="M332.8,245.3c-4.1-1.9-3.2,3.7-5.1,5.2c0,0,1.4,0.2,1.5-0.2l2.2,0.3C332.3,249,337.5,247,332.8,245.3z"/>
		<path fill="#FFFFFF" d="M357.5,218.6c0.3,0.1,0.7,0.2,1,0.2C357.9,218.3,357.5,218.3,357.5,218.6z"/>
		<path fill="#FFFFFF" d="M348.3,214c-2.3-0.2-4.5,0.6-5.7,3.1c-0.1,0.3-0.2,0.6-0.5,1c0.2-0.4,0.3-0.7,0.5-1c1.1-3.4-3-6.3-5.2-9.2
			c-2.2,8.7-12.3,12.7-19.4,18.7c-0.5,0.6-1,1.2-1.7,1.6c0.5-0.5,1.2-1.1,1.7-1.6c0.8-0.9,1.4-2,2-3.2c-2.9,3.4-8.8,1.3-11.4,4.5
			c-1.6,0.9-3.1,1.8-4.5,2.7c-1.4,1-2.8,2-4.1,3c-1.8,1.7-3.4,3.8-4.5,5.9c-2.3,4.2-3.4,9.1-2,14.3c0.8,2.3,2.3,3.9,3.9,4.7
			c11,4.7,21.1,7.8,29.7,16.4c1.6,0.8,3.1,0.8,4.5,0.9l-1.2-3.5c-5.7-6.7-12-15.3-8.8-25.5c-0.8,0.8-1.6,1.6-2.3,2.3
			c0-0.8,0-2.3,1.6-2.3c-2.7-0.4-3.1-2.2-2.8-4.2c0.5-1.8,0.5-4.1,1.3-5.7c-0.8,0.8-1.6,1.6-2.3,2.3c2.2-2.9,4.3-5.8,7.1-8.7
			c-0.1,0-0.1,0.1-0.2,0.1c-1.3,1.3-2.6,2.6-3.8,3.8c1.2-1.4,2.5-2.7,3.8-3.8c0.3-0.3,0.5-0.5,0.9-0.9c-0.2,0.2-0.5,0.5-0.7,0.7
			c7.5-6.3,17.5-8.5,27.3-7.8c-0.7,0-0.8,0.5-1.3,0.7c4.8-0.8,9.4,0.9,11.6,1.2c-1.9-2.3-4.3-5.3-4.3-6.1
			C354.1,217.6,350.9,216.1,348.3,214z"/>
		<path fill="#FFFFFF" d="M320,223.4c0.3-0.4,0.6-0.9,0.9-1.5C320.7,222.4,320.4,223,320,223.4z"/>
		<path fill="#FFFFFF" d="M361.7,220.4c-3.4-2.4-9-6.1-13.4-6.4c2.7,2.1,5.8,3.6,9.2,4.5c0-0.2,0.3-0.2,1,0.2
			c-0.3-0.1-0.7-0.2-1-0.2c0,0.7,2.4,3.8,4.3,6.1C363.6,224.8,363.9,224,361.7,220.4z"/>
		<path fill="#FFFFFF" d="M415.9,360.3c0-0.2-0.1-0.3-0.1-0.5C415.8,360,415.9,360.1,415.9,360.3z"/>
		<path fill="#FFFFFF" d="M416.6,361.6c0-0.5-0.5-0.9-0.7-1.3c0.1,0.2,0.1,0.4,0.1,0.6C416.3,361.1,416.5,361.3,416.6,361.6z"/>
		<path fill="#FFFFFF" d="M395.1,378.6c2.2-2,4.6-3.7,7.3-4.9c1.7-0.9,3.6-1.6,5.5-2.3c1.6-1.3,3.4-2.2,5.2-3.3
			c1.8-1.2,3.6-2.5,5.2-4.3c-3.5,1.3-2.2-0.6-2.3-2.7c-1.3-1.1-3.2-0.9-5.2-0.4c-2.3,0.5-4.9,1.5-6.8,2.2c-1.6,0.7-3.1,1.8-4,3.4
			c2.3-3.1,5.5-3.2,8.5-1.4c-2.2,1.3-4.3,2.6-6.2,4c-2,1.4-3.7,3.1-5.3,4.9c-3.1,3.4-6.3,7.4-10.8,9.2L386,383c2-0.3,0.1,0-1.3,1.5
			C386.7,383.5,392.8,380.3,395.1,378.6z"/>
		<path fill="#FFFFFF" d="M359.2,388.5c-0.2,0-0.2,0.1-0.4,0.1c-0.1,0.1-0.2,0.2-0.2,0.2C358.9,388.7,359,388.5,359.2,388.5z"/>
		<path fill="#FFFFFF" d="M355.4,391.8c0.6-0.2,0.3-0.3-0.5-0.5C355,391.7,355.2,391.8,355.4,391.8z"/>
		<path fill="#FFFFFF" d="M359.2,388.5c0.3-0.1,0.6-0.2,0.9-0.5C359.7,387.9,359.5,388.2,359.2,388.5z"/>
		<path fill="#FFFFFF" d="M382.6,383.1c-0.2,0.1-0.4,0.1-0.5,0.2C382.3,383.2,382.4,383.1,382.6,383.1z"/>
		<path fill="#FFFFFF" d="M391.4,378.4l0.4-0.9c-0.2,0.2-0.3,0.2-0.4,0.4C391.4,378.1,391.4,378.2,391.4,378.4z"/>
		<path fill="#FFFFFF" d="M335.1,390.3c6.7,0,4.9,0.7,6.7,0.1c-0.8-0.1-0.9-0.1,0.3-0.1c-0.1,0-0.2,0.1-0.3,0.1
			c2.3,0.2,10.4,0.5,13.1,1c-0.2-0.5-0.2-1.4-0.2-1.9c1.2-1.7,2.8-0.9,4.1-1c4.6-3.8,11.4-6,17.5-6.8c0.1,0,0.2,0,0.2,0
			c-0.1,0-0.2,0-0.2,0c-0.5,0.2-0.6,0.8-1.3,0.8c2.3,0,5.5-2.3,7.8-0.8c0.5,0.5,0.3,1.2-0.2,1.4c3.4-0.9,6.3-2.9,8.7-5.2
			c-0.2-0.8-0.9-0.2-2.3-0.2c-3.1,0-5.5,0-7.8-2.3c-4.7-3.9-0.8-10.2,2.3-14.1c0,1.6-0.8,3.9-0.8,5.5c0,7,7,3.9,10.4,0.7
			c2.3-1.8,4.6-3.9,6.9-5.6c1.6-1.1,3.1-2,4.6-2.7c1.6-0.5,3.1-1,4.7-1.2c1.3,0.1,2.7,0.1,4.1,0.1c-1.2,0-2-0.1-3.3-0.8
			c5.5-0.8,3.1-3.9-3.9-1.6l0.8-0.8c-0.8,0.8,9.4-3.1,11.7,2.3c0-6.3-5.5-4.7-8.6-5.9c-2.3,0-4.7,0.2-7,0.9
			c-2.3,0.7-4.5,1.9-6.3,3.4c-0.8,0.8-2.3-0.8-3.9-1.6c1.2-2,2.5-3.5,3.9-5.1c6.3-4.3,5.5-12.9,1.1-17.4c-1.2-1.3-2.6-2.4-4.1-3.5
			c-4.6-3.2-10.3-5.8-14.2-9.3c5.5-1.6,11,0.2,15.3,3.6c1.5,1.2,2.8,2.4,4,3.9c3.5,2.9,4.3,6.8,5.1,9.9c0.8-1.6,0.9-0.6,1.8,1.4
			s2,3.8,3.1,5.6c3.7,5.6,9.9,11,17,7.9c-4.7-10.2,9,2.3,6.8-5.5c-0.5-2.1-14.8-14.9-14.8-14.9c-0.8-9.4,12.3-19.2-1.8-10.6
			c-7,4.7-5.9,7.4-9.6,2c-0.9-1.4-1.8-2.9-2.7-4.3c-0.9-1.4-1.8-2.9-2.7-4.3c-1.3-2.3-9.4-5.1-4-7s5-12.5-4.2-7
			c-9.2,5.5-16.4-7.4-11.7,4.3c4.7,11.7-0.2,9.8-7.6,9.8c-2.2,0-4.4,0.3-6.5,0.9c-2.1,0.6-4.2,1.6-6.3,3c-0.8,0.8-1.6,3.1-0.8,3.9
			c3.1,3.9,18.3,14.4,14.8,27.2c-0.6,2.1-1.5,4.4-2.7,6.7c-2.5,11.4-18.2,29.4-17.4,30.2c-1.6-0.8-2.3-1.6-1.6-0.8
			c-7.8,1.6-13.3-2.3-9.4,0.8c-7,3.1-14.1,1.6-21.1,4c-1.1,0.5-2.2,1.1-3.1,2c1.2,0.6,2.4,1.2,3.6,1.7
			C332.8,388.9,341.8,390.3,335.1,390.3z"/>
		<path fill="#FFFFFF" d="M393.4,371.9c1.3-2.3,4-5.5,0.8-3.4c-2.7,4.1-4.8,6.2-2,5.2L393.4,371.9z"/>
		<path fill="#FFFFFF" d="M397.5,401.4c-0.2-0.1-0.4-0.2-0.6-0.2c0.1,0.1,0.2,0.2,0.3,0.2l0,0C397.3,401.5,397.4,401.5,397.5,401.4z
			"/>
		<path fill="#FFFFFF" d="M470.5,334.7c-0.7,1.2-1.4,2.4-2,3.6C469.3,337.2,471.1,336.3,470.5,334.7z"/>
		<path fill="#FFFFFF" d="M468.1,339.1c0.2-0.3,0.2-0.5,0.4-0.9C468.3,338.6,468.2,338.8,468.1,339.1z"/>
		<path fill="#FFFFFF" d="M397.2,401.5c-6.7-3.1-13.2-6-19.1-6.5c-13.3-0.8-28.2-1.6-42.3-1.6c-2.4,0-4.4,1.4-5.9,2.7
			c0.9,0.3,1.7,0.7,2.7,1c10.2-2.8,19.8,0.8,28.6,6.4c1.8,0.2,3.5,0.3,5.3,0.4c-2-2-4.9-3.1-7.5-3.4c-0.4,0-0.9-0.1-1.3-0.1
			c0.4,0,0.9,0,1.3,0.1c8.2,0.5,16.4,1.1,24.3,3.1C388.1,403.2,392.7,402.5,397.2,401.5L397.2,401.5z"/>
		<path fill="#FFFFFF" d="M469.7,328.4c-4.7,3.9-9.9,10.2-13.4,14.9h0.1c3.9-0.8,3.9-5.5,5.5-7c3-3.3,9-5.3,14.6-6.9
			c1.9-1.4,4-2.3,6.2-2.1c0.5-1.5,1-3,1.6-4.5C478.9,321.8,473.7,325,469.7,328.4z"/>
		<path fill="#FFFFFF" d="M476.5,329.4c-3.6,2.7-6.6,7.4-8.3,10.8c-0.2-0.4-0.2-0.7-0.1-1c-2.5,5.2-4.5,10.6-9.3,14.3
			c-3.9,2.3-8.6,1.6-11.7,5.5c1.6-2.3,3.9-3.9,5.5-6.3c-1.6-0.4,0.4-4.5,3.8-9.4c-1.6,0-3.1,0-3.8-0.8c-1.6-2.3-1.6-4.7-1.3-8.2
			l-0.3-0.9c0-5,3.1-16.8,11-15.2c3.1,0.8,7,0.8,10.2,0.8c7.8-0.8,3.5-10.2-5.9-8.6c-4.7,0.8-8.6,3.1-13.3,3.1
			c-4.7,0.8-8.2,9.4-12.1,11c6.3,7,3.1,9.4,1,7.1c-1.4-2.6-1.2,17.5-1.5,19.9c-0.5,4.7-2.7,23.1-8.1,27c0.8-4.7-2.3,3.1-5.5,9.4
			c0.2-1.2,0.3-2,0.3-2.7c-0.5,1.6-1,3.1-1.8,4.6c-0.5,0.9-0.9,1.7-1.5,2.5c4.8-2.3,9.3-4.9,13.7-7.8c1.9-4,2.7-6.7,1.8-6
			c1.2-2.7,2.4-5.7,4-8.6c1.6-2.9,3.4-5.6,5.6-7.6c2.1-1.8,4.5-4.1,7.6-3.4c-4.7,0.8-6.3,6.3-9.4,8.6c15.7-7.8,18-26.6,30.5-37.6
			c1.2-0.9,2.9-1.2,4.5-1c0.2-0.4,0.3-0.9,0.5-1.3C480.7,328.2,478.6,328.7,476.5,329.4z M436.1,378.1c-0.7,1.6-1.6,3.6-3,7
			c1.3-3.1,2.2-5.2,2.9-6.8C436.1,378.3,436.1,378.2,436.1,378.1c0.2-0.3,0.3-0.6,0.5-0.9C436.6,377.2,436.4,377.7,436.1,378.1z
			 M438.6,373.1C438.6,373.1,438.5,373.2,438.6,373.1C438.5,373.2,438.6,373.1,438.6,373.1c0.1-0.2,0.9-1.7,0.9-1.7
			C438.8,377.6,438.8,372.7,438.6,373.1z M442.6,366c-0.7,1.6-1.5,3.1-2.7,4.8l0.4-1.4c2-2.6,2-5.7,4.3-8.1
			C443.9,362.9,443.3,364.4,442.6,366z"/>
		<path fill="#FFFFFF" d="M400.3,400.8c1.4-0.3,2.8-0.7,4.2-1.1c-2,0-4.1,0-6,0C399.1,400,399.7,400.4,400.3,400.8z"/>
		<path fill="#FFFFFF" d="M425.6,385.9c0.4-0.6,0.8-1.2,1.2-1.8C426.6,383.8,426.1,384.2,425.6,385.9z"/>
		<path fill="#FFFFFF" d="M402.1,398c-0.7,0.1-1.4,0.1-2,0.1C400.8,398.1,401.5,398.1,402.1,398z"/>
		<path fill="#FFFFFF" d="M426.8,384.1c0.1,0.2,0.2,0.5,0.2,1.1c0.2-0.7,0.4-1.3,0.5-2C427.2,383.5,427.1,383.8,426.8,384.1z"/>
		<path fill="#FFFFFF" d="M423,390.9c0.9-1.6,1.8-3.3,2.6-4.9l0,0c-0.4,0.6-0.9,1.3-1.3,2c-1.1,1.6-2.3,3.2-3.8,4.6
			c-1.4,1.4-3,2.5-4.7,3.1c-1.8,0.6-3.8,0.8-5.9,0.2c-2.1-0.6-6-2.5-6.8-3.3c1.9-1,3.4-2.4,4.8-4c4.1-4.7,6.8-10.8,10.5-15.8
			l0.8-2.8c-5.7,3.1-7.3,9.3-13.5,10.7c-1.6,0.7-3.1,1.3-4.7,1.8c-5.5,2.2-13.3,0.6-16.4,5.3c-3,4.5,5.6,6.9,10.4,6.3
			c-0.3-0.1-0.6-0.1-1-0.1c0.8,0,0.8,0,1.6,0c-0.2,0-0.4,0.1-0.5,0.1c3.4,0.5,5.6,3.1,9.2,3.1c-0.8,0.4-1.3,0.5-1.9,0.7
			c1.9-0.2,4-0.2,5.9,0.7c4.5-1.4,9-3.1,13.3-5.1C421.8,392.7,422.4,391.8,423,390.9z"/>
		<path fill="#FFFFFF" d="M426.8,384.1c-0.4,0.5-0.8,1.2-1.2,1.8l0,0c-0.8,1.7-1.6,3.4-2.6,4.9c-0.5,0.9-1.2,1.8-1.8,2.7
			c0.9-0.4,1.6-0.8,2.5-1.2c0.5-0.8,1-1.6,1.5-2.5c0.8-1.5,1.4-3.1,1.8-4.6C427,384.6,426.9,384.3,426.8,384.1z"/>
		<path fill="#FFFFFF" d="M433.1,385.2c1.4-3.4,2.3-5.5,3-7c0,0.1-0.1,0.1-0.1,0.2C435.3,379.9,434.4,382,433.1,385.2z"/>
		<path fill="#FFFFFF" d="M436.6,377.2c-0.2,0.3-0.3,0.6-0.5,0.9C436.4,377.7,436.6,377.2,436.6,377.2z"/>
		<path fill="#FFFFFF" d="M438.6,373.1C438.6,373.1,438.5,373.2,438.6,373.1C438.5,373.2,438.6,373.1,438.6,373.1z"/>
		<path fill="#FFFFFF" d="M439.3,371.4c0,0-0.8,1.6-0.9,1.7C438.8,372.7,438.8,377.6,439.3,371.4z"/>
		<path fill="#FFFFFF" d="M440,370.8c1.2-1.6,2-3.1,2.7-4.8c0.7-1.6,1.3-3.1,2-4.7c-2.3,2.3-2.3,5.5-4.3,8.1L440,370.8z"/>
	</g>
	<g>
		<g>
			<path fill="#BEAF69" d="M102.9,130.8v17.4c0,1.3,2.7,3.2,2.7,3.2s1.8-1.3,2.4-2.5l2.2-1.3l-1.7-1.7l1.7-0.9l-2-1.9v-0.3l2-1.1
				l-2-1.9v-4.6h2.2V130c2.9-1.6,4.9-4.9,4.9-8.5c0-5.4-4.4-9.7-9.7-9.7c-5.4,0-9.7,4.4-9.7,9.7C95.8,125.9,98.8,129.6,102.9,130.8z
				 M105.5,114.7c1.6,0,2.9,1.3,2.9,2.9s-1.3,2.9-2.9,2.9s-2.9-1.3-2.9-2.9S104,114.7,105.5,114.7z"/>
		</g>
	</g>
	<g>
		<path fill="#BEAF69" d="M57.8,180.6V198c0,1.3,2.7,3.2,2.7,3.2s1.8-1.3,2.4-2.5l2.2-1.3l-1.7-1.7l1.7-0.9l-2-1.9v-0.3l2-1.1
			l-2-1.9V185h2.2v-5.3c2.9-1.6,4.9-4.9,4.9-8.5c0-5.4-4.4-9.7-9.7-9.7c-5.4,0-9.7,4.4-9.7,9.7C50.7,175.8,53.7,179.4,57.8,180.6z
			 M60.4,164.6c1.6,0,2.9,1.3,2.9,2.9s-1.3,2.9-2.9,2.9s-2.9-1.3-2.9-2.9C57.5,165.8,58.9,164.6,60.4,164.6z"/>
	</g>
	<g>
		<g>
			<path fill="#BEAF69" d="M36.5,242.8v17.4c0,1.3,2.7,3.2,2.7,3.2s1.8-1.3,2.4-2.5l2.2-1.3l-1.7-1.7l1.7-0.9l-2-1.9v-0.3l2-1.1
				l-2-1.9v-4.6H44v-5.2c2.9-1.6,4.9-4.9,4.9-8.5c0-5.4-4.4-9.7-9.7-9.7c-5.4,0-9.7,4.4-9.7,9.7C29.4,237.9,32.4,241.6,36.5,242.8z
				 M39.1,226.7c1.6,0,2.9,1.3,2.9,2.9s-1.3,2.9-2.9,2.9c-1.6,0-2.9-1.3-2.9-2.9C36.2,228,37.5,226.7,39.1,226.7z"/>
		</g>
	</g>
	<g>
		<g>
			<path fill="#BEAF69" d="M26.8,309.5v17.4c0,1.3,2.7,3.2,2.7,3.2s1.8-1.3,2.4-2.5l2.2-1.3l-1.7-1.7l1.7-0.9l-2-1.9v-0.3l2-1.1
				l-2-1.9v-4.6h2.2v-5.2c2.9-1.6,4.9-4.9,4.9-8.5c0-5.4-4.4-9.7-9.7-9.7c-5.4,0-9.7,4.4-9.7,9.7C19.7,304.6,22.7,308.4,26.8,309.5z
				 M29.4,293.4c1.6,0,2.9,1.3,2.9,2.9c0,1.6-1.3,2.9-2.9,2.9c-1.6,0-2.9-1.3-2.9-2.9C26.5,294.8,27.8,293.4,29.4,293.4z"/>
		</g>
	</g>
	<g>
		<g>
			<path fill="#BEAF69" d="M42.7,373.5v17.4c0,1.3,2.7,3.2,2.7,3.2s1.8-1.3,2.4-2.5l2.2-1.3l-1.7-1.7l1.7-0.9l-2-1.9v-0.3l2-1.1
				l-2-1.9v-4.6h2.2v-5.2c2.9-1.6,4.9-4.9,4.9-8.5c0-5.4-4.4-9.7-9.7-9.7c-5.4,0-9.7,4.4-9.7,9.7C35.7,368.6,38.7,372.3,42.7,373.5z
				 M45.4,357.4c1.6,0,2.9,1.3,2.9,2.9c0,1.6-1.3,2.9-2.9,2.9c-1.6,0-2.9-1.3-2.9-2.9C42.5,358.7,43.8,357.4,45.4,357.4z"/>
		</g>
	</g>
	<g>
		<g>
			<line fill="none" stroke="#3F6783" stroke-width="4" stroke-miterlimit="10" x1="119" y1="131.6" x2="123.5" y2="133.2"/>

				<line fill="none" stroke="#3F6783" stroke-width="4" stroke-miterlimit="10" stroke-dasharray="12.2986,12.2986" x1="132.5" y1="136.3" x2="437.2" y2="242.2"/>
			<line fill="none" stroke="#3F6783" stroke-width="4" stroke-miterlimit="10" x1="441.7" y1="243.9" x2="446.2" y2="245.4"/>
		</g>
	</g>
	<g>
		<g>
			<line fill="none" stroke="#3F6783" stroke-width="4" stroke-miterlimit="10" x1="74.1" y1="181.4" x2="78.6" y2="182.6"/>

				<line fill="none" stroke="#3F6783" stroke-width="4" stroke-miterlimit="10" stroke-dasharray="11.7618,11.7618" x1="87.5" y1="185.1" x2="348.8" y2="259.2"/>
			<line fill="none" stroke="#3F6783" stroke-width="4" stroke-miterlimit="10" x1="353.2" y1="260.5" x2="357.8" y2="261.8"/>
		</g>
	</g>
	<g>
		<g>
			<line fill="none" stroke="#3F6783" stroke-width="4" stroke-miterlimit="10" x1="52.7" y1="243.6" x2="57.3" y2="244.4"/>

				<line fill="none" stroke="#3F6783" stroke-width="4" stroke-miterlimit="10" stroke-dasharray="12.2473,12.2473" x1="66.8" y1="246.1" x2="326" y2="294.4"/>
			<line fill="none" stroke="#3F6783" stroke-width="4" stroke-miterlimit="10" x1="330.7" y1="295.3" x2="335.3" y2="296.2"/>
		</g>
	</g>
	<g>
		<g>
			<line fill="none" stroke="#3F6783" stroke-width="4" stroke-miterlimit="10" x1="45.4" y1="310.3" x2="50.1" y2="310.8"/>

				<line fill="none" stroke="#3F6783" stroke-width="4" stroke-miterlimit="10" stroke-dasharray="11.8847,11.8847" x1="59.3" y1="311.8" x2="387.6" y2="348.1"/>
			<line fill="none" stroke="#3F6783" stroke-width="4" stroke-miterlimit="10" x1="392.2" y1="348.6" x2="396.9" y2="349.2"/>
		</g>
	</g>
	<g>
		<g>
			<line fill="none" stroke="#3F6783" stroke-width="4" stroke-miterlimit="10" x1="58.6" y1="374.3" x2="63.3" y2="374.6"/>

				<line fill="none" stroke="#3F6783" stroke-width="4" stroke-miterlimit="10" stroke-dasharray="12.1472,12.1472" x1="72.7" y1="375.2" x2="352.7" y2="393.5"/>
			<line fill="none" stroke="#3F6783" stroke-width="4" stroke-miterlimit="10" x1="357.5" y1="393.8" x2="362.1" y2="394.1"/>
		</g>
	</g>
	<polygon fill="#C33B31" points="334.7,287.1 337.3,292.5 343.3,293.3 339,297.5 340,303.4 334.7,300.6 329.4,303.4 330.4,297.5
		326.1,293.3 332,292.5 	"/>
	<polygon fill="#C33B31" points="356.6,252.6 359.3,258 365.2,258.9 360.9,263 361.9,269 356.6,266.2 351.3,269 352.3,263
		348,258.9 353.9,258 	"/>
	<polygon fill="#C33B31" points="446.2,236.2 448.9,241.6 454.9,242.5 450.5,246.6 451.6,252.6 446.2,249.7 440.9,252.6
		441.9,246.6 437.6,242.5 443.6,241.6 	"/>
	<polygon fill="#C33B31" points="397.7,340.7 400.4,346.1 406.3,347 402,351.1 403,357.1 397.7,354.3 392.4,357.1 393.4,351.1
		389.1,347 395,346.1 	"/>
	<polygon fill="#C33B31" points="362.1,384.9 364.7,390.3 370.7,391.2 366.4,395.4 367.4,401.3 362.1,398.5 356.8,401.3
		357.8,395.4 353.5,391.2 359.4,390.3 	"/>
</g>
</svg>
