<?xml version="1.0" encoding="UTF-8"?>
<!-- Generator: Adobe Illustrator 18.1.1, SVG Export Plug-In . SVG Version: 6.00 Build 0)  -->
<svg version="1.1" id="Layer_1" xmlns="http://www.w3.org/2000/svg" xmlns:xlink="http://www.w3.org/1999/xlink" x="0px" y="0px" viewBox="434.8 0 1158.1 1000" enable-background="new 434.8 0 1158.1 1000" xml:space="preserve">
<g id="Layer_5">
	<g>
		<path fill="#DBDBDB" d="M860.8,177.8c7.9,12.3,3.3,20.8-3.3,25l-66,42.8c-6.4,4.1-16.2,5-24.2-7.3L667.5,84    c-7.9-12.3,0.5-21.7,7-25.8l60.1-39c6.4-4.1,18.4-8.2,26.3,4.1L860.8,177.8z"/>
	</g>
	<g>
		
			<rect x="716.1" y="60.2" transform="matrix(-0.8392 0.5438 -0.5438 -0.8392 1477.0166 -172.8425)" fill="#4C4C4C" width="95.9" height="143.5"/>
	</g>
	<g>
		<path fill="#CCCCCC" d="M708.2,61.8c-0.7,0-1.2-0.3-1.5-0.8c-0.5-0.9-0.3-2,0.5-2.4l14.1-9.1c0.3-0.2,0.7-0.3,1-0.3    c0.7,0,1.2,0.3,1.5,0.8c0.5,0.9,0.3,2-0.5,2.4l-14.1,9.1C708.8,61.8,708.5,61.8,708.2,61.8z"/>
		<g>
			<path fill="#EEEEEE" d="M722.3,49.4c0.4,0,1,0.2,1.2,0.7c0.4,0.7,0.2,1.6-0.4,2.1L709,61.3c-0.2,0.1-0.5,0.2-0.8,0.2     c-0.4,0-1-0.2-1.2-0.7c-0.4-0.7-0.2-1.6,0.4-2.1l14.1-9.1C721.8,49.5,722,49.4,722.3,49.4 M722.3,48.9L722.3,48.9     c-0.4,0-0.8,0.1-1.1,0.3l-14.1,9.1c-1,0.7-1.2,1.8-0.7,2.8c0.3,0.5,1,1,1.7,1c0.4,0,0.8-0.1,1.1-0.3l14.1-9.1     c0.4-0.3,0.8-0.8,0.9-1.3s0-1.1-0.3-1.5C723.6,49.2,723,48.9,722.3,48.9L722.3,48.9z"/>
		</g>
	</g>
	<g>
		<path fill="#CCCCCC" d="M814.5,218.8c-3.5,0-6.6-1.7-8.6-4.7c-3-4.7-1.7-11,3-14c1.6-1.1,3.6-1.6,5.5-1.6c3.5,0,6.6,1.7,8.6,4.7    c1.5,2.3,2,5,1.4,7.6c-0.5,2.6-2.2,4.9-4.5,6.4C818.4,218.3,816.5,218.8,814.5,218.8z"/>
		<g>
			<path fill="#EEEEEE" d="M814.5,198.7c3.3,0,6.4,1.6,8.3,4.6c2.9,4.6,1.6,10.8-2.9,13.7c-1.6,1.1-3.5,1.6-5.3,1.6     c-3.3,0-6.4-1.6-8.3-4.6c-2.9-4.6-1.6-10.8,2.9-13.7C810.8,199.2,812.6,198.7,814.5,198.7 M814.5,198.1c-2.1,0-4,0.5-5.7,1.6     c-2.4,1.5-3.9,3.9-4.6,6.6s-0.1,5.5,1.4,7.8c2,2.9,5.2,4.8,8.8,4.8c2.1,0,4-0.5,5.7-1.6c4.9-3.2,6.2-9.7,3-14.5     C821.3,200,818.1,198.1,814.5,198.1L814.5,198.1z"/>
		</g>
	</g>
	<g>
		<g>
			<g>
				<path fill="#606060" d="M717.9,104.3c0.8,1.1,0.4,2.6-0.7,3.3l-11.3,7.3c-1.1,0.8-2.6,0.4-3.3-0.7l-7.3-11.3      c-0.8-1.1-0.4-2.6,0.7-3.3l11.3-7.3c1.1-0.8,2.6-0.4,3.3,0.7L717.9,104.3z"/>
			</g>
			<g>
				<path fill="#606060" d="M736.4,92.5c0.8,1.1,0.4,2.6-0.7,3.3l-11.3,7.3c-1.1,0.8-2.6,0.4-3.3-0.7l-7.3-11.3      c-0.8-1.1-0.4-2.6,0.7-3.3l11.3-7.3c1.1-0.8,2.6-0.4,3.3,0.7L736.4,92.5z"/>
			</g>
			<g>
				<path fill="#606060" d="M754.8,80.5c0.8,1.1,0.4,2.6-0.7,3.3l-11.3,7.3c-1.1,0.8-2.6,0.4-3.3-0.7l-7.3-11.3      c-0.8-1.1-0.4-2.6,0.7-3.3l11.3-7.3c1.1-0.8,2.6-0.4,3.3,0.7L754.8,80.5z"/>
			</g>
			<g>
				<path fill="#606060" d="M773.3,68.5c0.8,1.1,0.4,2.6-0.7,3.3l-11.3,7.3c-1.1,0.8-2.6,0.4-3.3-0.7l-7.3-11.3      c-0.8-1.1-0.4-2.6,0.7-3.3l11.3-7.3c1.1-0.8,2.6-0.4,3.3,0.7L773.3,68.5z"/>
			</g>
		</g>
		<g>
			<g>
				<path fill="#606060" d="M729.8,122.8c0.8,1.1,0.4,2.6-0.7,3.3l-11.3,7.3c-1.1,0.8-2.6,0.4-3.3-0.7l-7.3-11.3      c-0.8-1.1-0.4-2.6,0.7-3.3l11.3-7.3c1.1-0.8,2.6-0.4,3.3,0.7L729.8,122.8z"/>
			</g>
			<g>
				<path fill="#606060" d="M748.3,110.9c0.8,1.1,0.4,2.6-0.7,3.3l-11.3,7.3c-1.1,0.8-2.6,0.4-3.3-0.7l-7.3-11.3      c-0.8-1.1-0.4-2.6,0.7-3.3l11.3-7.3c1.1-0.8,2.6-0.4,3.3,0.7L748.3,110.9z"/>
			</g>
			<g>
				<path fill="#606060" d="M766.7,98.9c0.8,1.1,0.4,2.6-0.7,3.3l-11.3,7.3c-1.1,0.8-2.6,0.4-3.3-0.7l-7.3-11.3      c-0.8-1.1-0.4-2.6,0.7-3.3l11.3-7.3c1.1-0.8,2.6-0.4,3.3,0.7L766.7,98.9z"/>
			</g>
			<g>
				<path fill="#606060" d="M785.2,86.9c0.8,1.1,0.4,2.6-0.7,3.3l-11.3,7.3c-1.1,0.8-2.6,0.4-3.3-0.7l-7.3-11.3      c-0.8-1.1-0.4-2.6,0.7-3.3l11.3-7.3c1.1-0.8,2.6-0.4,3.3,0.7L785.2,86.9z"/>
			</g>
		</g>
		<g>
			<g>
				<path fill="#606060" d="M741.8,141.2c0.8,1.1,0.4,2.6-0.7,3.3l-11.3,7.3c-1.1,0.8-2.6,0.4-3.3-0.7l-7.3-11.3      c-0.8-1.1-0.4-2.6,0.7-3.3l11.3-7.3c1.1-0.8,2.6-0.4,3.3,0.7L741.8,141.2z"/>
			</g>
			<g>
				<path fill="#606060" d="M760.3,129.4c0.8,1.1,0.4,2.6-0.7,3.3l-11.3,7.3c-1.1,0.8-2.6,0.4-3.3-0.7l-7.3-11.3      c-0.8-1.1-0.4-2.6,0.7-3.3l11.3-7.3c1.1-0.8,2.6-0.4,3.3,0.7L760.3,129.4z"/>
			</g>
			<g>
				<path fill="#606060" d="M778.7,117.4c0.8,1.1,0.4,2.6-0.7,3.3l-11.3,7.3c-1.1,0.8-2.6,0.4-3.3-0.7l-7.3-11.3      c-0.8-1.1-0.4-2.6,0.7-3.3l11.3-7.3c1.1-0.8,2.6-0.4,3.3,0.7L778.7,117.4z"/>
			</g>
			<g>
				<path fill="#606060" d="M797.2,105.4c0.8,1.1,0.4,2.6-0.7,3.3l-11.3,7.3c-1.1,0.8-2.6,0.4-3.3-0.7l-7.3-11.3      c-0.8-1.1-0.4-2.6,0.7-3.3l11.3-7.3c1.1-0.8,2.6-0.4,3.3,0.7L797.2,105.4z"/>
			</g>
		</g>
		<g>
			<g>
				<path fill="#606060" d="M753.8,159.7c0.8,1.1,0.4,2.6-0.7,3.3l-11.3,7.3c-1.1,0.8-2.6,0.4-3.3-0.7l-7.3-11.3      c-0.8-1.1-0.4-2.6,0.7-3.3l11.3-7.3c1.1-0.8,2.6-0.4,3.3,0.7L753.8,159.7z"/>
			</g>
			<g>
				<path fill="#606060" d="M772.2,147.8c0.8,1.1,0.4,2.6-0.7,3.3l-11.3,7.3c-1.1,0.8-2.6,0.4-3.3-0.7l-7.3-11.3      c-0.8-1.1-0.4-2.6,0.7-3.3l11.3-7.3c1.1-0.8,2.6-0.4,3.3,0.7L772.2,147.8z"/>
			</g>
			<g>
				<path fill="#606060" d="M790.7,135.8c0.8,1.1,0.4,2.6-0.7,3.3l-11.3,7.3c-1.1,0.8-2.6,0.4-3.3-0.7l-7.3-11.3      c-0.8-1.1-0.4-2.6,0.7-3.3l11.3-7.3c1.1-0.8,2.6-0.4,3.3,0.7L790.7,135.8z"/>
			</g>
			<g>
				<path fill="#606060" d="M809.1,123.8c0.8,1.1,0.4,2.6-0.7,3.3l-11.3,7.3c-1.1,0.8-2.6,0.4-3.3-0.7l-7.3-11.3      c-0.8-1.1-0.4-2.6,0.7-3.3l11.3-7.3c1.1-0.8,2.6-0.4,3.3,0.7L809.1,123.8z"/>
			</g>
		</g>
		<g>
			<g>
				<path fill="#606060" d="M765.7,178.1c0.8,1.1,0.4,2.6-0.7,3.3l-11.3,7.3c-1.1,0.8-2.6,0.4-3.3-0.7l-7.3-11.3      c-0.8-1.1-0.4-2.6,0.7-3.3l11.3-7.3c1.1-0.8,2.6-0.4,3.3,0.7L765.7,178.1z"/>
			</g>
			<g>
				<path fill="#606060" d="M784.1,166.2c0.8,1.1,0.4,2.6-0.7,3.3l-11.3,7.3c-1.1,0.8-2.6,0.4-3.3-0.7l-7.3-11.3      c-0.8-1.1-0.4-2.6,0.7-3.3l11.3-7.3c1.1-0.8,2.6-0.4,3.3,0.7L784.1,166.2z"/>
			</g>
			<g>
				<path fill="#606060" d="M802.6,154.3c0.8,1.1,0.4,2.6-0.7,3.3l-11.3,7.3c-1.1,0.8-2.6,0.4-3.3-0.7l-7.3-11.3      c-0.8-1.1-0.4-2.6,0.7-3.3l11.3-7.3c1.1-0.8,2.6-0.4,3.3,0.7L802.6,154.3z"/>
			</g>
			<g>
				<path fill="#606060" d="M821,142.3c0.8,1.1,0.4,2.6-0.7,3.3l-11.3,7.3c-1.1,0.8-2.6,0.4-3.3-0.7l-7.3-11.3      c-0.8-1.1-0.4-2.6,0.7-3.3l11.3-7.3c1.1-0.8,2.6-0.4,3.3,0.7L821,142.3z"/>
			</g>
		</g>
		<g>
			<g>
				<path fill="#606060" d="M777.7,196.6c0.8,1.1,0.4,2.6-0.7,3.3l-11.3,7.3c-1.1,0.8-2.6,0.4-3.3-0.7l-7.3-11.3      c-0.8-1.1-0.4-2.6,0.7-3.3l11.3-7.3c1.1-0.8,2.6-0.4,3.3,0.7L777.7,196.6z"/>
			</g>
			<g>
				<path fill="#606060" d="M796.1,184.6c0.8,1.1,0.4,2.6-0.7,3.3l-11.3,7.3c-1.1,0.8-2.6,0.4-3.3-0.7l-7.3-11.3      c-0.8-1.1-0.4-2.6,0.7-3.3l11.3-7.3c1.1-0.8,2.6-0.4,3.3,0.7L796.1,184.6z"/>
			</g>
			<g>
				<path fill="#606060" d="M814.6,172.7c0.8,1.1,0.4,2.6-0.7,3.3l-11.3,7.3c-1.1,0.8-2.6,0.4-3.3-0.7l-7.3-11.3      c-0.8-1.1-0.4-2.6,0.7-3.3l11.3-7.3c1.1-0.8,2.6-0.4,3.3,0.7L814.6,172.7z"/>
			</g>
			<g>
				<path fill="#606060" d="M833,160.7c0.8,1.1,0.4,2.6-0.7,3.3l-11.3,7.3c-1.1,0.8-2.6,0.4-3.3-0.7l-7.3-11.3      c-0.8-1.1-0.4-2.6,0.7-3.3l11.3-7.3c1.1-0.8,2.6-0.4,3.3,0.7L833,160.7z"/>
			</g>
		</g>
	</g>
	<g>
		<g>
			<g>
				<g>
					<path fill="#333333" d="M710.6,115c2,18.2,18.2,31.3,36.3,29.4c18.2-2,31.3-18.2,29.4-36.3c-2-18.2-18.2-31.3-36.3-29.4       C721.8,80.6,708.7,96.8,710.6,115z M772.1,108.5c1.6,15.8-9.8,29.9-25.6,31.6s-29.9-9.8-31.6-25.6s9.8-29.9,25.6-31.6       C756.3,81.3,770.3,92.7,772.1,108.5z"/>
				</g>
			</g>
			<g>
				<circle fill="#494949" cx="743.4" cy="111.5" r="28.7"/>
			</g>
		</g>
	</g>
	<g>
		<g>
			<g>
				<g>
					<path fill="#333333" d="M801.5,133.7c4.5-15.1-4.2-31-19.4-35.4c-15.1-4.4-31,4.2-35.4,19.4c-4.5,15.1,4.2,31,19.4,35.4       C781.2,157.5,797.1,148.8,801.5,133.7z M750.4,118.7c3.8-13.2,17.6-20.7,30.8-16.8c13.2,3.8,20.7,17.6,16.8,30.8       c-3.8,13.2-17.6,20.7-30.8,16.8C754,145.6,746.5,131.9,750.4,118.7z"/>
				</g>
			</g>
			<g>
				<circle fill="#494949" cx="774.1" cy="125.7" r="24.8"/>
			</g>
		</g>
	</g>
	<g>
		<g>
			<g>
				<g>
					<path fill="#333333" d="M743.7,162.2c2,18.2,18.2,31.3,36.3,29.4c18.2-2,31.3-18.2,29.4-36.3s-18.2-31.3-36.3-29.4       S741.7,144.1,743.7,162.2z M805.1,155.7c1.6,15.8-9.8,29.9-25.6,31.6c-15.8,1.6-29.9-9.8-31.6-25.6s9.8-29.9,25.6-31.6       C789.3,128.6,803.4,140,805.1,155.7z"/>
				</g>
			</g>
			<g>
				<circle fill="#494949" cx="776.5" cy="158.7" r="28.7"/>
			</g>
		</g>
	</g>
	<path fill="#DBDBDB" d="M524.1,840.9c-6.4-2.3-11-8.5-11-15.6l-41.5-320c0-9.1,7.5-16.5,16.5-16.5l335.5,14.9   c9.1,0,16.5,7.5,16.5,16.5l29.3,226.1c0,3.2-0.1,6-0.7,8.3l236.4,67.5c0,0,0.2,9.7,0,10.2l-1.8,0.8l1.8-0.8L762.8,978.7   c-9.7,3.5-22.6,5.5-36.1-3.6c0,0-201.8-126.3-202.5-127.1C523.6,847.4,524.1,840.9,524.1,840.9z"/>
	<path fill="#F4F4F4" d="M1103.9,824.1L763.1,965.5c-9.7,3.5-22.6,5.5-36.1-3.6L524.2,838.1c0.8-4.9,4.6-5.9,17-8.6l325.8-74.6   c5.4-0.4,9.6-0.3,22.7,3.9l213.7,61.5C1106.4,820.9,1105.4,823.4,1103.9,824.1z"/>
	<g>
		<polygon fill="#4C4C4C" points="857.5,738.3 533.6,806 495.5,516.5 828.6,523.7   "/>
	</g>
	<g>
		<polygon fill="#5E5E5E" points="834.2,723.5 558.6,778.5 526.2,532 809.8,538.2   "/>
	</g>
	<g>
		<polygon fill="#6D6D6D" points="812,558.2 529.2,556 526.2,532 809.8,538.2   "/>
	</g>
	<g id="Trackpad_4_">
		<path fill="#E8E8E8" d="M1008.1,857.5L900.7,901c-1.7,0.4-6.9,1.7-9.4,0.4l-92-40.6c0,0-1.5-1.6,0.3-2.1l112.2-36.3    c3.8-0.8,9.1,1.2,9.1,1.2l88,30.1C1012.4,854.5,1009.8,857,1008.1,857.5z"/>
	</g>
	<g>
		<path fill="#939393" d="M595.6,835.8l-21.4,5.3c-0.7,0.2-2,0.1-2.5-0.3l-3.6-1.6c-1-0.7-1-2.5,1-3.2l19-5.2    c0.7-0.2,1.5-0.3,2.6,0.3l5.1,2.6C597.2,834.7,596.1,835.7,595.6,835.8z"/>
	</g>
	<g>
		<path fill="#939393" d="M610.8,844.4l-21.4,5.9c-0.7,0.2-2,0.1-2.5-0.3l-9.1-4.9c-1-0.7-1-2.5,1-3.2l19-4.7    c0.7-0.2,1.5-0.3,2.6,0.3l10.6,4.8C612.4,843.3,611.4,844.3,610.8,844.4z"/>
	</g>
	<g>
		<path fill="#939393" d="M641,849.7l-35.3,9.7c-0.7,0.2-2,0.1-2.5-0.3l-9.7-5.4c-1-0.7-1-2.5,1-3.2l33.9-9.1    c0.7-0.2,1.5-0.3,2.6,0.3l10,5.9C642.6,848.7,641.4,849.6,641,849.7z"/>
	</g>
	<g>
		<path fill="#939393" d="M665.3,856.9l-43,12c-0.7,0.2-2,0.1-2.5-0.3l-9.7-5.4c-1-0.7-1-2.5,1-3.2l41.7-11.3    c0.7-0.2,1.5-0.3,2.6,0.3l10,5.9C667,855.8,665.8,856.8,665.3,856.9z"/>
	</g>
	<g>
		<path fill="#939393" d="M698.4,863.2l-56.3,16.9c-0.7,0.2-2,0.1-2.5-0.3l-12.5-7.1c-1-0.7-1-2.5,1-3.2l55.5-15.2    c0.7-0.2,1.5-0.3,2.6,0.3l12.3,6.4C700,862.1,698.9,863,698.4,863.2z"/>
	</g>
	<g>
		<path fill="#939393" d="M686.3,885.3l-24.3,8.1c-0.7,0.2-2,0.1-2.5-0.3l-13.6-8.8c-1-0.7-1-2.5,1-3.2l22.4-6.9    c0.7-0.2,1.5-0.3,2.6,0.3l14.5,8.7C688,884.2,686.8,885.2,686.3,885.3z"/>
	</g>
	<g>
		<path fill="#939393" d="M714.5,876.7l-22,6.4c-0.7,0.2-2,0.1-2.5-0.3l-13.6-7.7c-1-0.7-1-2.5,1-3.2l19.6-6.3    c0.7-0.2,1.5-0.3,2.6,0.3l15,8.7C716.1,875.6,714.9,876.6,714.5,876.7z"/>
	</g>
	<g>
		<path fill="#939393" d="M742.2,867.9l-22,6.4c-0.7,0.2-2,0.1-2.5-0.3l-13.6-7.7c-1-0.7-1-2.5,1-3.2l18.5-5.2    c0.7-0.2,1.5-0.3,2.6,0.3l16.1,7.6C744,866.7,742.8,867.7,742.2,867.9z"/>
	</g>
	<g>
		<path fill="#939393" d="M773.3,857.9l-25.4,7.5c-0.7,0.2-2,0.1-2.5-0.3l-14.7-7.1c-1-0.7-1-2.5,1-3.2l23-6.9    c0.7-0.2,1.5-0.3,2.6,0.3l16.1,7.6C774.9,856.8,773.8,857.8,773.3,857.9z"/>
	</g>
	<g>
		<path fill="#939393" d="M884.3,823.5l-104.5,32.4c-0.7,0.2-2,0.1-2.5-0.3l-14.7-7.1c-1-0.7-1-2.5,1-3.2l101.9-29.6    c0.7-0.2,1.2-0.1,2.6,0.3l16.1,5.3C886,822.4,884.8,823.4,884.3,823.5z"/>
	</g>
	<g>
		<path fill="#939393" d="M907.8,815.5l-17.5,5.3c-0.7,0.2-2.2,0.1-2.9-0.2l-14.1-4.9c-1-0.7-1-2.5,1-3.2l15.1-4.9    c0.7-0.2,1.2-0.1,2.6,0.3l16.1,5.3C909.5,814.4,908.3,815.4,907.8,815.5z"/>
	</g>
	<g>
		<path fill="#939393" d="M924.4,808.8l-10.4,3.8c-0.7,0.2-2.2,0.1-2.9-0.2l-13.6-4.4c-1-0.7-1-2.5,1-3.2l9.1-2.7    c0.7-0.2,1.2-0.1,2.6,0.3l14.5,4.2C926.1,807.7,924.9,808.7,924.4,808.8z"/>
	</g>
	<g>
		<path fill="#939393" d="M942.9,803.9l-9.4,2.7c-0.7,0.2-2.2,0.1-2.9-0.2l-6.2-2c-1-0.7,1.3-1.4,3.2-2.1l7.5-2.2    c0.7-0.2,1.2-0.1,2.6,0.3l5.4,1.2C944.5,802.9,943.4,803.8,942.9,803.9z"/>
	</g>
	<g>
		<path fill="#939393" d="M947.8,794.9l-8.8,2.7c-0.7,0.2-2.2,0.1-2.9-0.2l-4.6-1.3c-1-0.7,0.8-0.9,2.6-1.4l7.5-2.2    c0.7-0.2,1.2-0.1,2.6,0.3l4.9,1.2C949.8,794.4,948.2,794.8,947.8,794.9z"/>
	</g>
	<g>
		<path fill="#939393" d="M947.8,794.9l-8.8,2.7c-0.7,0.2-2.2,0.1-2.9-0.2l-4.6-1.3c-1-0.7,0.8-0.9,2.6-1.4l7.5-2.2    c0.7-0.2,1.2-0.1,2.6,0.3l4.9,1.2C949.8,794.4,948.2,794.8,947.8,794.9z"/>
	</g>
	<g>
		<path fill="#939393" d="M725.4,854.7l-19.8,5.7c-0.5,0.1-1.7,0.1-2.2-0.2l-11.9-5.9c-0.9-0.4-0.8-2.1,1-2.5l18.2-5    c0.5-0.1,1.3-0.3,2.3,0.2l12.5,6C726.8,853.9,725.8,854.6,725.4,854.7z"/>
	</g>
	<g>
		<path fill="#939393" d="M751.6,847.6l-19.8,5.7c-0.5,0.1-1.7,0.1-2.2-0.2l-11.9-5.9c-0.9-0.4-0.8-2.1,1-2.5l17.6-5    c0.5-0.1,1.3-0.3,2.3,0.2l13.2,6.1C753,846.6,752,847.5,751.6,847.6z"/>
	</g>
	<g>
		<path fill="#939393" d="M775,840.3l-18.1,5.1c-0.5,0.1-1.7,0.1-2.2-0.2l-11.9-5.9c-0.9-0.4-0.8-2.1,1-2.5l16-3.9    c0.5-0.1,1.3-0.3,2.3,0.2l13.2,5.5C776.5,839.3,775.4,840.2,775,840.3z"/>
	</g>
	<g>
		<path fill="#939393" d="M797.8,833.5l-17.1,5.2c-0.5,0.1-1.7,0.1-2.2-0.2l-11.9-5.9c-0.9-0.4-0.8-2.1,1-2.5l16-3.9    c0.5-0.1,1.3-0.3,2.3,0.2l12.2,5.4C799.4,832.7,798.3,833.4,797.8,833.5z"/>
	</g>
	<g>
		<path fill="#939393" d="M819.5,827.2l-15.9,4.6c-0.5,0.1-1.7,0.1-2.2-0.2l-11.9-5.9c-0.9-0.4-0.8-2.1,1-2.5l13.7-3.4    c0.5-0.1,1.3-0.3,2.3,0.2l13.2,5.5C821,826.2,820,827.1,819.5,827.2z"/>
	</g>
	<g>
		<path fill="#939393" d="M840.9,821.1l-15.3,4.6c-0.5,0.1-1.7,0.1-2.2-0.2l-11.3-5.3c-0.9-0.4-0.8-2.1,1-2.5l13.2-3.4    c0.5-0.1,1.3-0.3,2.3,0.2l12.6,4.9C842.5,820.2,841.4,821,840.9,821.1z"/>
	</g>
	<g>
		<path fill="#939393" d="M861.5,814.5l-15.3,4.6c-0.5,0.1-1.7,0.1-2.2-0.2l-11.3-4.8c-0.9-0.4-0.8-2.1,1-2.5l13.2-3.4    c0.5-0.1,1.3-0.3,2.3,0.2l12.6,4.4C863,813.5,861.9,814.3,861.5,814.5z"/>
	</g>
	<g>
		<path fill="#939393" d="M879.3,808.5l-12.6,3.5c-0.5,0.1-1.6,0-2.2-0.2l-10.8-3.6c-0.9-0.4-0.8-2.1,1-2.5l10.4-2.8    c0.5-0.1,1.2-0.1,2.3,0.2l12.1,3.8C880.9,807.6,879.8,808.4,879.3,808.5z"/>
	</g>
	<g>
		<path fill="#939393" d="M897.5,802.5l-11.4,3.5c-0.5,0.1-1.6,0-2.2-0.2l-10.8-3.6c-0.9-0.4-0.8-2.1,1-2.5l9.4-2.8    c0.5-0.1,1.2-0.1,2.3,0.2l12.1,3.8C898.9,801.7,897.9,802.4,897.5,802.5z"/>
	</g>
	<g>
		<path fill="#939393" d="M915.2,797.6l-10.9,2.9c-0.5,0.1-1.6,0-2.2-0.2l-10.8-3.6c-0.9-0.4-0.8-2.1,1-2.5l8.8-2.3    c0.5-0.1,1.2-0.1,2.3,0.2l12.1,3.8C916.8,796.6,915.8,797.5,915.2,797.6z"/>
	</g>
	<g>
		<path fill="#939393" d="M952,786.4l-30.8,9c-0.5,0.1-1.6,0-2.2-0.2l-10.2-3c-0.9-0.4-0.8-2.1,1-2.5l29.3-7.8    c0.5-0.1,1.2-0.1,2.3,0.2l11,2.7C953.5,785.6,952.6,786.3,952,786.4z"/>
	</g>
	<g>
		<path fill="#939393" d="M693.3,849.2l-19.8,5.7c-0.5,0.1-1.7,0.1-2.2-0.2l-11.9-5.9c-0.9-0.4-0.8-2.1,1-2.5l18.2-4.5    c0.5-0.1,1.3-0.3,2.3,0.2l12.6,5.5C694.8,848.3,693.7,849.1,693.3,849.2z"/>
	</g>
	<g>
		<path fill="#939393" d="M719,842l-18.6,5.7c-0.5,0.1-1.7,0.1-2.2-0.2l-11.9-5.9c-0.9-0.4-0.8-2.1,1-2.5l17.6-4.5    c0.5-0.1,1.3-0.3,2.3,0.2l12.1,5.5C720.5,841,719.4,841.9,719,842z"/>
	</g>
	<g>
		<path fill="#939393" d="M743.6,835.3l-17,5.1c-0.5,0.1-1.7,0.1-2.2-0.2l-12.4-5.9c-0.9-0.4-0.8-2.1,1-2.5l16.5-3.9    c0.5-0.1,1.3-0.3,2.3,0.2l12.1,5.5C745.1,834.4,744,835.2,743.6,835.3z"/>
	</g>
	<g>
		<path fill="#939393" d="M766.9,828.6l-16,4.6c-0.5,0.1-1.7,0.1-2.2-0.2l-11.9-4.8c-0.9-0.4-0.8-2.1,1-2.5l14.8-3.9    c0.5-0.1,1.3-0.3,2.3,0.2l12.2,4.9C768.4,827.7,767.4,828.5,766.9,828.6z"/>
	</g>
	<g>
		<path fill="#939393" d="M788.1,822.2l-14.3,4c-0.5,0.1-1.7,0.1-2.2-0.2l-11.3-4.1c-0.9-0.4-0.8-2.1,1-2.5L775,816    c0.5-0.1,1.3-0.3,2.3,0.2l11,4.4C789.6,821.3,788.5,822.1,788.1,822.2z"/>
	</g>
	<g>
		<path fill="#939393" d="M809.9,816.7l-14.3,3.5c-0.5,0.1-1.7,0.1-2.2-0.2l-11.3-4.1c-0.9-0.4-0.8-2.1,1-2.5l13.2-3.4    c0.5-0.1,1.3-0.3,2.3,0.2l11.5,4.9C811.4,815.8,810.5,816.6,809.9,816.7z"/>
	</g>
	<g>
		<path fill="#939393" d="M831.7,810.6l-15.3,4.6c-0.5,0.1-1.7,0.1-2.2-0.2l-11.3-4.8c-0.9-0.4-0.8-2.1,1-2.5l13.2-3.4    c0.5-0.1,1.3-0.3,2.3,0.2l12.6,4.4C833.1,809.6,832.1,810.5,831.7,810.6z"/>
	</g>
	<g>
		<path fill="#939393" d="M849.5,804.7l-12.6,3.5c-0.5,0.1-1.6,0-2.2-0.2l-10.8-3.6c-0.9-0.4-0.8-2.1,1-2.5l10.4-2.8    c0.5-0.1,1.2-0.1,2.3,0.2l12.1,3.8C851,803.7,850,804.6,849.5,804.7z"/>
	</g>
	<g>
		<path fill="#939393" d="M868.7,799.3l-11.4,3.5c-0.5,0.1-1.6,0-2.2-0.2l-10.8-3.6c-0.9-0.4-0.8-2.1,1-2.5l9.4-2.8    c0.5-0.1,1.2-0.1,2.3,0.2l12.1,3.8C870.2,798.3,869.2,799.2,868.7,799.3z"/>
	</g>
	<g>
		<path fill="#939393" d="M886,794.3l-10.9,2.9c-0.5,0.1-1.6,0-2.2-0.2l-10.8-3.6c-0.9-0.4-0.8-2.1,1-2.5l8.8-2.3    c0.5-0.1,1.2-0.1,2.3,0.2l12.1,3.8C887.5,793.4,886.4,794.1,886,794.3z"/>
	</g>
	<g>
		<path fill="#939393" d="M904,789.3l-10.3,2.4c-0.5,0.1-1.6,0-2.2-0.2l-10.2-2.5c-0.9-0.4-0.8-2.1,1-2.5l9.4-2.3    c0.5-0.1,1.2-0.1,2.3,0.2l10.3,3.3C905.6,788.3,904.6,789.1,904,789.3z"/>
	</g>
	<g>
		<path fill="#939393" d="M667.4,841.9l-18.2,5.1c-0.5,0.1-1.7,0.2-2.2-0.1l-10.4-5.1c-0.9-0.3-0.7-1.7,1.1-2.2l17.1-4    c0.5-0.1,1.3-0.3,2.3,0.1l10.6,4.8C668.9,841.1,667.8,841.8,667.4,841.9z"/>
	</g>
	<g>
		<path fill="#939393" d="M693.6,835.3l-17.6,4.5c-0.5,0.1-1.7,0.2-2.2-0.1l-10.4-4.6c-0.9-0.3-0.7-1.7,1.1-2.2l16.5-4    c0.5-0.1,1.3-0.3,2.3,0.1l10.6,4.8C695.1,834.5,694,835.2,693.6,835.3z"/>
	</g>
	<g>
		<path fill="#939393" d="M719.3,828.1l-17,5.1c-0.5,0.1-1.7,0.2-2.2-0.1l-12.1-4.5c-0.9-0.3-0.7-1.7,1.1-2.2l16.4-4    c0.5-0.1,1.3-0.3,2.3,0.1l11.8,4.2C720.8,827.2,719.7,828,719.3,828.1z"/>
	</g>
	<g>
		<path fill="#939393" d="M742.7,821.5l-16,4.6c-0.5,0.1-1.7,0.2-2.2-0.1l-11-4.1c-0.9-0.3-0.7-1.7,1.1-2.2l14.3-3.4    c0.5-0.1,1.3-0.3,2.3,0.1L743,820C744.2,820.6,743.1,821.2,742.7,821.5z"/>
	</g>
	<g>
		<path fill="#939393" d="M763.9,815.1l-14.3,4c-0.5,0.1-1.7,0.2-2.2-0.1l-11.1-3.2c-0.9-0.3-0.7-1.7,1.1-2.2l13.7-3.5    c0.5-0.1,1.3-0.3,2.3,0.1l10.7,3.4C765.4,814.3,764.3,815,763.9,815.1z"/>
	</g>
	<g>
		<path fill="#939393" d="M785.8,810.6l-14.3,3.6c-0.5,0.1-1.7,0.2-2.2-0.1l-9.9-3.7c-0.9-0.3-0.7-1.7,1.1-2.2l12.1-2.8    c0.5-0.1,1.3-0.3,2.3,0.1l11.2,3.8C787.3,809.8,786.2,810.5,785.8,810.6z"/>
	</g>
	<g>
		<path fill="#939393" d="M807.4,805.1l-14.3,3.5c-0.5,0.1-1.7,0.2-2.2-0.1l-11-3.6c-0.9-0.3-0.7-1.7,1.1-2.2l12.1-2.3    c0.5-0.1,1.3-0.3,2.3,0.1l12.3,3.3C808.9,804.3,807.9,804.9,807.4,805.1z"/>
	</g>
	<g>
		<path fill="#939393" d="M826.5,799.4l-12.6,3.5c-0.5,0.1-1.5,0.1-2.2-0.1l-10.6-2.7c-0.9-0.3-0.7-1.7,1.1-2.2l10.4-2.8    c0.5-0.1,1.2-0.2,2.3,0.1l11.8,2.8C828,798.5,826.9,799.3,826.5,799.4z"/>
	</g>
	<g>
		<path fill="#939393" d="M845.7,793.9l-11.5,3.5c-0.5,0.1-1.5,0.1-2.2-0.1l-10.6-2.7c-0.9-0.3-0.7-1.7,1.1-2.2l9.4-2.8    c0.5-0.1,1.2-0.2,2.3,0.1l11.8,2.8C847.2,793.1,846.2,793.8,845.7,793.9z"/>
	</g>
	<g>
		<path fill="#939393" d="M864.1,789l-10.9,2.9c-0.5,0.1-1.5,0.1-2.2-0.1l-10.6-2.7c-0.9-0.3-0.7-1.7,1.1-2.2l8.8-2.3    c0.5-0.1,1.2-0.2,2.3,0.1l11.8,2.8C865.6,788.2,864.5,788.9,864.1,789z"/>
	</g>
	<g>
		<path fill="#939393" d="M881.6,784l-10.3,2.5c-0.5,0.1-1.5,0.1-2.2-0.1l-9.5-2.3c-0.9-0.3-0.7-1.7,1.1-2.2l8.7-1.7    c0.5-0.1,1.2-0.2,2.3,0.1l10.1,2.4C883.1,783.2,882.1,783.8,881.6,784z"/>
	</g>
	<g>
		<path fill="#939393" d="M898.4,779.7l-10.3,2.5c-0.5,0.1-1.5,0.1-2.2-0.1l-9.5-2.3c-0.9-0.3-0.7-1.7,1.1-2.2l8.7-1.7    c0.5-0.1,1.2-0.2,2.3,0.1l10.1,2.4C899.9,778.8,898.9,779.6,898.4,779.7z"/>
	</g>
	<g>
		<path fill="#939393" d="M932.5,781l-20.9,6.2c-0.5,0.1-1.6,0-2.2-0.2l-10.2-3c-0.9-0.4-0.8-2.1,1-2.5l19.3-5    c0.5-0.1,1.2-0.1,2.3,0.2l11,2.7C934,780,933,780.8,932.5,781z"/>
	</g>
	<g>
		<path fill="#939393" d="M959.9,798.7l-9.4,2.7c-0.7,0.2-2.2,0.1-2.9-0.2l-5-1.4c-1-0.7,1.7-1.4,3.6-2l5.9-1.6    c0.7-0.2,1.2-0.2,2.9,0.2l5.1,1.3C960.9,798,960.3,798.6,959.9,798.7z"/>
	</g>
	<g>
		<path fill="#939393" d="M974.8,793.4l-9.4,2.7c-0.7,0.2-2.2,0.1-2.9-0.2l-5-1.4c-1-0.7,1.7-1.4,3.6-2l5.9-1.6    c0.7-0.2,1.2-0.2,2.9,0.2l5.1,1.3C975.8,792.6,975.3,793.3,974.8,793.4z"/>
	</g>
	<g>
		<path fill="#939393" d="M915.1,775.1l-10.3,2.5c-0.5,0.1-1.5,0.1-2.2-0.1l-9.5-2.3c-0.9-0.3-0.7-1.7,1.1-2.2l8.7-1.7    c0.5-0.1,1.2-0.2,2.3,0.1l10.1,2.4C916.7,774.2,915.6,774.9,915.1,775.1z"/>
	</g>
	<g>
		<path fill="#939393" d="M637.3,836.7l-18.2,4.9c-0.5,0.1-1.7,0.1-2.2-0.1l-10.3-5.2c-0.9-0.3-0.7-1.7,1.1-2.2l17.1-3.8    c0.5-0.1,1.3-0.3,2.3,0.1l10.6,4.9C638.8,835.8,637.7,836.6,637.3,836.7z"/>
	</g>
	<g>
		<path fill="#939393" d="M663.6,830.4l-17.6,4.2c-0.5,0.1-1.7,0.1-2.2-0.1l-10.3-4.7c-0.9-0.3-0.7-1.7,1.1-2.2l16.5-3.8    c0.5-0.1,1.3-0.3,2.3,0.1l10.6,4.9C665.1,829.5,664,830.3,663.6,830.4z"/>
	</g>
	<g>
		<path fill="#939393" d="M689.4,823.4l-17.1,4.9c-0.5,0.1-1.7,0.1-2.2-0.1l-12.1-4.7c-0.9-0.3-0.7-1.7,1.1-2.2l16.5-3.8    c0.5-0.1,1.3-0.3,2.3,0.1l11.6,4.4C690.9,822.5,689.8,823.3,689.4,823.4z"/>
	</g>
	<g>
		<path fill="#939393" d="M713.3,817.6l-16.1,4.4c-0.5,0.1-1.7,0.1-2.2-0.1l-11-4.2c-0.9-0.3-0.7-1.7,1.1-2.2l14.4-3.3    c0.5-0.1,1.3-0.3,2.3,0.1l11.8,3.9C714.9,816.8,713.9,817.5,713.3,817.6z"/>
	</g>
	<g>
		<path fill="#939393" d="M735.2,811.7l-14.3,3.8c-0.5,0.1-1.7,0.1-2.2-0.1l-11-3.3c-0.9-0.3-0.7-1.7,1.1-2.2l13.8-3.3    c0.5-0.1,1.3-0.3,2.3,0.1l10.6,3.5C736.7,810.8,735.6,811.6,735.2,811.7z"/>
	</g>
	<g>
		<path fill="#939393" d="M757.2,806.3l-14.3,3.4c-0.5,0.1-1.7,0.1-2.2-0.1l-9.9-3.8c-0.9-0.3-0.7-1.7,1.1-2.2l12.1-2.8    c0.5-0.1,1.3-0.3,2.3,0.1l11.1,3.9C758.7,805.5,757.6,806.1,757.2,806.3z"/>
	</g>
	<g>
		<path fill="#939393" d="M779.5,801l-14.3,3.3c-0.5,0.1-1.7,0.1-2.2-0.1l-11-3.7c-0.9-0.3-0.7-1.7,1.1-2.2l12.1-2.2    c0.5-0.1,1.3-0.3,2.3,0.1l12.3,3.4C781,800.2,779.9,800.9,779.5,801z"/>
	</g>
	<g>
		<path fill="#939393" d="M798.5,795.5l-12.6,3.4c-0.5,0.1-1.5,0.1-2.2-0.1l-10.4-2.8c-0.9-0.3-0.7-1.7,1.1-2.2l10.4-2.7    c0.5-0.1,1.2-0.1,2.3,0.1l11.8,2.9C800,794.7,798.9,795.3,798.5,795.5z"/>
	</g>
	<g>
		<path fill="#939393" d="M816.7,790.9l-11.5,3.3c-0.5,0.1-1.5,0.1-2.2-0.1l-10.4-2.8c-0.9-0.3-0.7-1.7,1.1-2.2l9.4-2.7    c0.5-0.1,1.2-0.1,2.3,0.1l11.8,2.9C818.2,790,817.1,790.8,816.7,790.9z"/>
	</g>
	<g>
		<path fill="#939393" d="M836.3,786.2l-11,2.8c-0.5,0.1-1.5,0.1-2.2-0.1l-10.4-2.8c-0.9-0.3-0.7-1.7,1.1-2.2l8.8-2.2    c0.5-0.1,1.2-0.1,2.3,0.1l11.8,2.9C837.8,785.3,836.7,786.1,836.3,786.2z"/>
	</g>
	<g>
		<path fill="#939393" d="M853.9,781.4l-10.3,2.3c-0.5,0.1-1.5,0.1-2.2-0.1l-9.5-2.4c-0.9-0.3-0.7-1.7,1.1-2.2l8.8-1.6    c0.5-0.1,1.2-0.1,2.3,0.1l10.1,2.5C855.4,780.5,854.3,781.3,853.9,781.4z"/>
	</g>
	<g>
		<path fill="#939393" d="M871.3,776.7L861,779c-0.5,0.1-1.5,0.1-2.2-0.1l-9.5-2.4c-0.9-0.3-0.7-1.7,1.1-2.2l8.8-1.6    c0.5-0.1,1.2-0.1,2.3,0.1l10.1,2.5C872.8,775.9,871.7,776.6,871.3,776.7z"/>
	</g>
	<g>
		<path fill="#939393" d="M896.9,770.1l-17.5,4c-0.5,0.1-1.5,0.1-2.2-0.1l-9.5-2.4c-0.9-0.3-0.7-1.7,1.1-2.2l16-3.4    c0.5-0.1,1.2-0.1,2.3,0.1l10.1,2.5C898.4,769.3,897.3,770,896.9,770.1z"/>
	</g>
	<g>
		<path fill="#939393" d="M624.4,828.3l-19.7,4.8c-0.5,0.1-1.5,0.2-1.8,0l-6-2.8c-0.8-0.2-0.5-1.2,1-1.6l18.7-3.9    c0.5-0.1,1.2-0.2,2,0l6.1,2.6C625.7,827.5,624.9,828.2,624.4,828.3z"/>
	</g>
	<g>
		<path fill="#939393" d="M651,822l-17,4.4c-0.5,0.1-1.5,0.2-1.8,0l-7.1-2.4c-0.8-0.2-0.5-1.2,1-1.6l17.7-3.9c0.5-0.1,1.2-0.2,2,0    l5.5,2.6C652.3,821.3,651.3,821.9,651,822z"/>
	</g>
	<g>
		<path fill="#939393" d="M675.3,815.6l-17.1,4.1c-0.5,0.1-1.5,0.2-1.8,0l-5.2-2.4c-0.8-0.2-0.5-1.2,1-1.6l16.5-3.4    c0.5-0.1,1.2-0.2,2,0l4.9,2.2C676.6,814.9,675.7,815.5,675.3,815.6z"/>
	</g>
	<g>
		<path fill="#939393" d="M700.9,809.6l-14.6,3.8c-0.5,0.1-1.5,0.2-1.8,0l-6.5-2.2c-0.8-0.2-0.5-1.2,1-1.6l14.1-3.5    c0.5-0.1,1.2-0.2,2,0l6.1,2.4C702.2,808.9,701.3,809.5,700.9,809.6z"/>
	</g>
	<g>
		<path fill="#939393" d="M724.6,803.7l-13.6,3.9c-0.5,0.1-1.5,0.2-1.8,0l-7.7-2c-0.8-0.2-0.5-1.2,1-1.6l14.1-3.5    c0.5-0.1,1.2-0.2,2,0l6.2,2.1C725.9,803.1,724.9,803.7,724.6,803.7z"/>
	</g>
	<g>
		<path fill="#939393" d="M746.5,798.5l-12.9,2.9c-0.5,0.1-1.5,0.2-1.8,0l-6.7-1.8c-0.8-0.2-0.5-1.2,1-1.6l12.7-2.9    c0.5-0.1,1.2-0.2,2,0l6.1,2.4C747.8,797.8,746.8,798.4,746.5,798.5z"/>
	</g>
	<g>
		<path fill="#939393" d="M768.1,793.5l-12.4,2.9c-0.5,0.1-1.5,0.2-1.8,0l-7.1-1.7c-0.8-0.2-0.5-1.2,1-1.6l11.6-2.6    c0.5-0.1,1.2-0.2,2,0l7.1,2.1C769.4,792.8,768.6,793.4,768.1,793.5z"/>
	</g>
	<g>
		<path fill="#939393" d="M788.7,788.3l-11,2.9c-0.5,0.1-1.3,0.1-1.8,0l-8.9-1.6c-0.8-0.2-0.5-1.2,1-1.6l12.9-2.4c0.5-0.1,1-0.1,2,0    l6.1,1.7C790.1,787.6,789.1,788.2,788.7,788.3z"/>
	</g>
	<g>
		<path fill="#939393" d="M809.6,783l-10,2.8c-0.5,0.1-1.3,0.1-1.8,0l-8.9-1.6c-0.8-0.2-0.5-1.2,1-1.6l10.3-2.3c0.5-0.1,1-0.1,2,0    l7.7,1.7C811,782.4,810,782.9,809.6,783z"/>
	</g>
	<g>
		<path fill="#939393" d="M828.9,778.4l-10.1,2.4c-0.5,0.1-1.3,0.1-1.8,0l-8.4-1.1c-0.8-0.2-0.5-1.2,1-1.6l9.4-2c0.5-0.1,1-0.1,2,0    l8.4,1.2C830.2,777.7,829.3,778.3,828.9,778.4z"/>
	</g>
	<g>
		<path fill="#939393" d="M845.7,773.9l-9,2.1c-0.5,0.1-1.3,0.1-1.8,0l-7.5-0.9c-0.8-0.2-0.5-1.2,1-1.6l8.7-2.1c0.5-0.1,1-0.1,2,0    l7,1.4C847.1,773.3,846.2,773.8,845.7,773.9z"/>
	</g>
	<g>
		<path fill="#939393" d="M863,769.4l-9,2.1c-0.5,0.1-1.3,0.1-1.8,0l-7-0.9c-0.8-0.2-0.5-1.2,1-1.6l9.2-2.1c0.5-0.1,1-0.1,2,0    l5.9,1.4C864.4,768.7,863.5,769.3,863,769.4z"/>
	</g>
	<g>
		<path fill="#939393" d="M880,765l-9.1,1.8c-0.5,0.1-1.3,0.1-1.8,0l-5.9-0.9c-0.8-0.2-0.5-0.7,1-1.1l8.4-1.8c0.5-0.1,1-0.1,2,0    l5.9,0.9C881.4,764.3,880.4,764.9,880,765z"/>
	</g>
	<g>
		<path fill="#CCCCCC" d="M1153.3,285.6l-192.4,90.6c-4.4,3.8-3.3,10.7,3.9,14l160.2,69.5c10.3,3.6,16.9,3,22.5,0.1l187.2-115.4    c4.4-3.8,4.9-10.1-2.5-12.4l-146.3-45.6C1173.3,282.6,1166.8,280.3,1153.3,285.6z"/>
	</g>
	<g>
		<path fill="#FFFFFF" d="M1137.6,452.8c-3.6,0-7.7-0.8-12.4-2.5l-157-67.2c-3.9-1.8-7.2-3.5-7.4-5.2c-0.1-0.9,0.4-1.7,1.8-2.9    l193.1-92.9c5.3-2.1,9.8-3,14-3c5.4,0,10.4,1.5,17.3,3.7l0.9,0.2l142.7,47.8c3.2,1,5,2.3,5.3,3.7c0.3,1.4-0.7,3.2-2.9,5.1    l-185.8,111C1144.3,452.1,1141.1,452.8,1137.6,452.8L1137.6,452.8z M983,369.5l168,71.4l168.2-100.1L1158,285.7L983,369.5z"/>
		<path fill="#CCCCCC" d="M1169.8,279.5c5.3,0,10.3,1.5,17.2,3.6l0.8,0.2l142.7,47.8c2.9,0.9,4.7,2.1,4.9,3.4    c0.2,1.2-0.7,2.7-2.7,4.6l-185.8,111c-2.9,1.5-6,2.3-9.4,2.3c-3.6,0-7.5-0.8-12.2-2.4l-156.9-67.2c-3.5-1.6-7-3.4-7.2-4.8    c-0.1-0.7,0.4-1.4,1.6-2.4l193.1-92.8C1161.2,280.5,1165.7,279.5,1169.8,279.5 M1151,441.4l0.4-0.3l167-99.3l2-1.2l-2.2-0.8    l-159.9-54.6l-0.4-0.1l-0.4,0.2l-173.8,83.2l-2.1,1l2.2,0.9l166.7,70.7L1151,441.4 M1169.8,278.5c-4.2,0-8.6,0.9-14.3,3.2    l-193.2,92.9c-4.4,3.8-1.5,5.7,5.7,9l157,67.2c5,1.7,9,2.5,12.6,2.5c3.8,0,7-0.9,9.9-2.4l185.9-111c4.4-3.8,4.9-7.4-2.5-9.8    l-142.7-47.8C1180.8,280.2,1175.6,278.5,1169.8,278.5L1169.8,278.5z M1151,440.2l-166.7-70.7l173.8-83.3l159.9,54.6L1151,440.2    L1151,440.2z"/>
	</g>
	<path fill="#4C4C4C" d="M1158.1,286.1l159.9,54.6l-167,99.3l-166.7-70.7L1158.1,286.1z"/>
	<g>
		<path fill="#EEEEEE" d="M1051.4,413.4c-4.7,0-8.3-1.7-8.4-4.1c0-1.2,0.9-2.4,2.6-3.3c1.6-0.9,3.8-1.4,6.1-1.4c0.2,0,0.4,0,0.7,0    c4.7,0,8.3,1.7,8.4,4.1c0,1.2-0.9,2.4-2.6,3.3c-1.6,0.9-3.8,1.4-6.1,1.4C1051.8,413.4,1051.6,413.4,1051.4,413.4L1051.4,413.4z"/>
		<g>
			<path fill="#DDDDDD" d="M1052.3,404.9c4.5,0,8.1,1.6,8.1,3.9c0.1,2.3-3.7,4.2-8.5,4.5c-0.2,0-0.4,0-0.7,0c-4.5,0-8.1-1.6-8.1-3.9     c-0.1-2.3,3.7-4.2,8.5-4.5C1051.9,404.9,1052.1,404.9,1052.3,404.9 M1052.3,404.2c-0.2,0-0.4,0-0.7,0c-5.1,0.2-9,2.4-9,5     c0.1,2.5,3.8,4.5,8.7,4.5c0.2,0,0.4,0,0.7,0c2.4-0.1,4.6-0.7,6.3-1.5c1.8-1,2.7-2.2,2.7-3.6     C1060.9,406.2,1057.2,404.2,1052.3,404.2L1052.3,404.2z"/>
		</g>
	</g>
	<g>
		
			<ellipse transform="matrix(-0.1577 0.9875 -0.9875 -0.1577 1742.3154 -870.0226)" fill="#191919" cx="1242.2" cy="308.1" rx="0.8" ry="2"/>
	</g>
	<g>
		<g>
			<path fill="#B7B7B7" d="M998.8,362.4C998.8,362.4,998.9,362.4,998.8,362.4l0.1,0.1C998.9,362.4,998.9,362.4,998.8,362.4z"/>
		</g>
		<g>
			<path fill="#B7B7B7" d="M1028.3,348.4c-0.2-0.1-0.5-0.3-0.8-0.4c0.1,0.2,0.2,0.4,0.3,0.7L1028.3,348.4z"/>
		</g>
		<g>
			<polygon fill="#B7B7B7" points="1058,333 1057.2,334.5 1057.2,334.5 1057.2,334.5    "/>
		</g>
		<path d="M989.3,367.1l-4.5,2.2c0,0.2,0.1,0.3,0.1,0.5l7.4,3.2C991,370.8,990,368.8,989.3,367.1z"/>
		<g>
			<path fill="#333333" d="M984.3,369.5l0.7,0.3c0-0.2-0.1-0.3-0.1-0.5L984.3,369.5z"/>
			<path fill="#333333" d="M1158.2,433.1c-2.6-1-5.3-2.2-8.1-3.6c-3.2-1.6-6.1-3.5-8.6-5.4l-2,3.9l-0.1,0.3c-3.5,2.3-9,2-15.6-0.1     c-3.5-1.1-7.2-2.8-10.9-4.9c-0.2-0.1-0.3-0.2-0.5-0.3c-0.3-0.2-0.7-0.4-1.1-0.7c-2.5-1.4-4.8-3-6.7-4.6c-2.6-2.1-4.9-4.1-6.6-6.3     c-0.7-0.8-1.2-1.5-1.7-2.3c-1.3-1.8-2.2-3.7-2.7-5.4c-3-0.4-6.3-1.4-9.8-2.8c-0.1,0-0.2-0.1-0.2-0.1c-2.4-1-4.8-2.1-7.3-3.4     c-0.5-0.3-1.2-0.7-1.7-1c-1.1-0.7-2.2-1.3-3.3-2.1c-0.4-0.1-1-0.2-1.5-0.3c-2.4-0.7-4.9-1.5-7.5-2.8c-0.2-0.1-0.4-0.2-0.7-0.3     l0.4-0.9l0.3-0.7l-0.3,0.7l-0.4,0.9c-3-1.6-6.3-3.6-9.5-6c-1.1-0.9-2.2-1.7-3.3-2.6c-2.7-2.3-5-4.6-7-7v0.1     c-3.2,2.5-8.5,2.7-14.9,1.4c-2.3-0.5-4.8-1.2-7.3-2.2c2.9,3.7,7.2,7.5,12.4,10.9c0.3,0.2,0.7,0.4,1.1,0.7c0.1,0,0.2,0.1,0.2,0.1     l-0.2,0.5l0.2-0.5c10.4,6.4,21,9,26,6.6c0.2,0.1,0.5,0.2,0.8,0.2l-2.5,4.7c-0.9,0.5-2,0.9-3,1.2l4.5,1.8l18.6,7.8l0,0l4.1,1.7     l6.2,2.6l0.9,0.3l7.9,3.4l1.5,0.7l7.3,3l6.6,2.8l0.9,0.4l11.2,4.8l26.7,11.3l9.8-5.9c0,0-1.4-0.8-2.3-1.1     C1158.4,433.2,1158.3,433.2,1158.2,433.1z"/>
			<polygon fill="#333333" points="1112.9,421.8 1112.9,421.8 1113.4,420.8    "/>
			<path fill="#333333" d="M1013.1,374.6c-0.4-1-0.8-2-0.9-2.9c-3.2-1.5-6-3.3-8.5-5.1c-1.7-1.5-3.3-2.9-4.8-4.1l0,0l-9.6,4.6     c0.7,1.8,1.6,3.8,3,5.8l28.9,12.3C1017.4,381.7,1014.6,378,1013.1,374.6z"/>
			<path fill="#333333" d="M1062.3,389.4l-0.1,0.2L1062.3,389.4z"/>
			<path fill="#333333" d="M1062.3,389c0,0.1,0,0.2,0,0.3l0,0C1062.5,389.2,1062.3,389.1,1062.3,389z"/>
			<path fill="#333333" d="M1041.7,375.4c0,0.1,0.1,0.1,0.1,0.2v-0.1C1041.8,375.5,1041.8,375.5,1041.7,375.4z"/>
			<polygon fill="#333333" points="1181.5,351 1181.5,351 1181.4,352.4    "/>
			<path fill="#333333" d="M1184.2,323.3c-12.4-6.4-24.7-7.8-28.3-3.5l-0.1,0.2l-0.8,1.4c-1.6,5.5,6.6,14.8,19.1,21.3     c12.1,6.3,23.9,7.8,28,3.8l0.8-1.6l0.8-1.6l0,0l0,0c0-0.1,0-0.2,0-0.3C1203.5,337.4,1195.6,329.1,1184.2,323.3z"/>
			<path fill="#333333" d="M1104,360.2"/>
			<path fill="#333333" d="M1068.8,330.6c0.5,1.8,1.7,3.9,3.5,6c0.7,0.8,1.4,1.6,2.2,2.4c3.3,3.3,7.7,6.5,12.9,9.4     c3.8,2.1,7.6,3.6,11.1,4.7c2.2,0.7,4.2,1.1,6.2,1.4c0.1,0,0.3,0,0.4,0c4.6,0.5,8.3,0,10.2-1.8l1.4-3.2l0,0l0,0c0-0.1,0-0.2,0-0.3     c0-5.5-7.6-13.9-19-20c-5.9-3.2-11.8-5.2-16.6-6l-5.5,2.6l-4.4,2.1l-2.8,1.4l-1.5,0.8l-1.1,0.5c0.2,0,0.5,0,0.8,0     C1067.2,330.4,1068,330.5,1068.8,330.6z"/>
			<path fill="#333333" d="M1098.5,353.1"/>
			<path fill="#333333" d="M1187.2,397.3c-3.5-3.3-7.2-5.9-10.6-7.8c-3.4-4-8.8-8.4-15.6-11.9c-12.4-6.4-24.7-7.8-28.3-3.5l-0.1,0.2     l-0.1,0.2l-0.7,1.2l0,0c-0.7,2.4,0.4,5.5,3,8.9c2.1,2.6,5,5.3,8.7,7.9c2.2,1.5,4.7,3,7.3,4.5c1.4,0.8,2.7,1.4,4.1,2     c2.5,1.1,5,2,7.4,2.6c7.5,2.1,13.8,2,16.5-0.8l-2.6,5.9c-1.6,1.2-3.8,1.7-6.3,2c-0.8,0-1.5,0-2.3,0c-2.7-0.1-5.7-0.8-8.9-1.7     c-2.7-0.9-5.5-2-8.4-3.4c-0.7-0.3-1.3-0.7-2-1c-0.1-0.1-0.2-0.1-0.4-0.2c-2.3-1.2-4.5-2.5-6.4-3.8c-0.8-0.5-1.5-1.1-2.3-1.6     c-6.4-4.8-10.6-10.2-10.8-15l0.7-1.2c-5.3-3.2-10.4-5.1-14.6-5.5c-2.2-2.5-5.1-5-8.6-7.3l0.1-1.6l0.1-1.4c0-0.1-0.1-0.1-0.1-0.2     c-0.4-1.2-1.3-2.4-2.5-3.5l0.4-1l0,0l0,0c-0.7,0-1.3-0.1-2.1-0.2c-2.6-1.8-6.1-3.5-10.3-4.7c-0.9-0.5-1.8-1.1-2.7-1.6     c-4.2-2.3-8.4-3.9-12.3-5c-6.4-4.8-10.7-10.2-11.3-14.9c-1.4-0.7-2.8-1.1-4-1.2l-3.9,1.8c-0.4,1.4-0.2,3,0.5,4.9     c1.1,2.6,3.4,5.5,6.5,8.5l0,0c0,0,0.1,0,0.1,0.1c1.6,1.1,3.3,2.1,5.1,3c1.3,0.7,2.5,1.3,3.7,1.8c-3.9,0-7.5,0.4-10.4,1.2     c-0.4-0.2-0.9-0.5-1.2-0.8c-0.7-0.5-1.3-1.2-1.8-1.7l0.8-1.4l0,0l-0.8,1.4c-1.1-1.1-2-2.3-2.8-3.4c-1.8-2.6-2.9-5.1-3-7.5     l0.7-1.2l0.8-1.3l2-3.6l-4.7,2.3l0,0l-4.5,2.2l-3.4,1.6l-12,5.8l-4.5,2.1l-9.2,4.5l-14.5,7l-0.2,0.1c0.3,0.1,0.5,0.2,0.9,0.3     c2.6,2.1,5.7,3.9,9,5.7c0.3,0.2,0.8,0.4,1.2,0.5c0.2,0.1,0.4,0.2,0.7,0.3c0.1,0,0.2,0.1,0.3,0.1c7.4,3.5,14.7,5.2,20.1,5.1     c1,0,1.8-0.1,2.6-0.2c2.2-0.3,4-1.1,5.1-2.3l0.1-0.3c2.7,3.7,6.6,7.5,11.3,11c1,0.8,2,1.4,2.9,2.1c-0.9-1.5-1.4-2.9-1.6-4.4     c0-0.3-0.1-0.7-0.1-1l3.4-6.1c-1,3.2,1.2,7.5,5.5,11.9c2.3,2.3,5,4.6,8.3,6.7c1.5,1,3.3,2.1,5,2.9c0.3,0.2,0.7,0.3,0.9,0.4     c5.2,2.7,10.3,4.5,14.8,5.3c0.5,0.1,1.1,0.2,1.6,0.2c1.7,0.2,3.4,0.3,4.8,0.2c2.5-0.2,4.5-0.9,5.7-2.1l-1.7,3.7l-1.1,2.3     c-1.3,1-3,1.5-5,1.7c2,2.7,4.7,5.5,8.2,8.3c0.7,0.5,1.4,1.1,2.2,1.6c1.6,1.1,3.3,2.3,5,3.3c0.4,0.2,0.9,0.5,1.4,0.8     c1,0.5,2,1.1,2.9,1.5c3.5,1.6,6.7,2.9,9.9,3.7c5,1.3,9.2,1.4,12,0.2c-2.3-1.7-4.1-3.6-5.8-5.4c-0.7-0.8-1.2-1.5-1.7-2.3     c-4.7-1.6-10-4.7-15.2-8.7c-3.4-2.5-6.3-5.3-8.7-8.1c-0.5-0.8-1.1-1.4-1.7-2.2c-0.2-0.2-0.3-0.4-0.5-0.7l0.1-0.2l0.1-0.2v-0.1     l1.1-2.4l0,0l0,0c0-0.1,0-0.2,0-0.3c0-0.4,0-0.9-0.1-1.4s-0.2-1.1-0.4-1.5c-0.8-2.1-2.3-4.4-4.5-6.7c-0.1-0.1,1.6-3.2,1.6-3.2     l2.6-3.3l-1,1.3c-1.4,2.8,0,7.3,3.3,12.1c0.4,0.7,1,1.4,1.5,2.1c0.7,0.9,1.4,1.7,2.2,2.6c2.3,2.5,5,5.1,8.2,7.5     c3,2.4,6.2,4.4,9.2,5.9l2.4-4.5c0.1,0.1,0.2,0.1,0.3,0.2c-0.1,1.8,0.7,4.1,2.3,6.4c0.4,0.7,1,1.4,1.6,2.1     c1.3,1.5,2.8,3.2,4.7,4.7c0.4,0.4,1,0.8,1.4,1.2l0.1,0.1c2.6,2.1,5.8,4,9.1,5.8c5.4,2.8,10.9,4.7,15.6,5.5l8.3-4.9l4.7-2.8     l0.4-0.2l0.9-0.5l12.9-7.7l2.9-1.7C1196.3,407.4,1192.4,402.1,1187.2,397.3z"/>
			<path fill="#333333" d="M1153.8,361c13.5,1.4,25.1-1.4,27.5-6.6l0.1-2c0-0.8,0.1-1.2,0.1-1.5l0,0v-0.1c0-0.1-0.1-0.1-0.1-0.1     c-1.8-4.9-10.9-9.5-22.6-11.2c0.5,0.5,0.5,0.5,0,0c-0.9-0.1-1.7-0.2-2.6-0.3c-13.9-1.5-25.9,1.6-27.6,7.1v0.3l-0.2,1.6     C1128.8,353.9,1139.8,359.6,1153.8,361z"/>
			<path fill="#333333" d="M1222.1,308l-14.8-5.1c-8.2,2.7-13.8,6.9-14.1,10.9v0.3l0.2,1.6c1.8,5.4,13.9,8.3,27.9,6.4     c8.8-1.2,16.4-4,20.9-7.3L1222.1,308z"/>
		</g>
		<g>
			<path d="M1059.7,351.5L1059.7,351.5L1059.7,351.5c0.5,0.7,1.2,1.2,1.8,1.7c1.6,1.1,3.3,2.1,5,3c2.4,1.3,4.7,2.4,7,3.3     c1.2,0.4,2.4,1,3.6,1.3h0.1c0-0.1,0-0.2,0-0.3c0,0.1,0,0.2,0,0.3l0,0c0.2,0.1,0.4,0.1,0.7,0.2c4.2,1.3,8.2,2,11.3,1.7     c1.4-0.1,2.6-0.4,3.7-0.9c0.3-0.1,0.7-0.3,1-0.4c0.3-0.1,0.5-0.3,0.8-0.4l1.2-2.5c-1.3-0.4-2.6-0.9-3.9-1.4     c-4.6,0.3-10.8-1-17.4-3.8c-1.6-0.8-3.4-1.5-5-2.4c-1.8-1-3.5-2-5.1-3c0,0-0.1,0-0.1-0.1l0,0c-3.2-2.9-5.4-5.9-6.5-8.5     c-0.8-1.8-1-3.5-0.5-4.9l0,0l-2,3.6l-0.8,1.3l-0.7,1.2c0.1,2.4,1.2,4.9,3,7.5C1057.7,349.3,1058.6,350.3,1059.7,351.5z"/>
			<path d="M1162.4,401.8c-2.4-0.7-4.8-1.5-7.4-2.6c-1.4-0.5-2.7-1.2-4.1-2c-2.6-1.4-5.1-2.9-7.3-4.5c-3.6-2.6-6.6-5.3-8.7-7.9     c-2.6-3.3-3.8-6.4-3-8.9l-2.6,5l-0.7,1.2c0.3,4.7,4.4,10.1,10.8,15c0.8,0.5,1.5,1.1,2.3,1.6c2,1.3,4.1,2.6,6.4,3.8     c0.1,0.1,0.2,0.1,0.4,0.2c0.7,0.3,1.3,0.7,2,1c2.9,1.4,5.8,2.5,8.4,3.4c3.2,1,6.2,1.6,8.9,1.7c0.8,0,1.5,0,2.3,0     c2.5-0.1,4.7-0.8,6.3-2l2.6-5.9C1176.3,403.7,1169.9,403.9,1162.4,401.8z"/>
			<polygon points="1107.1,396.4 1107,396.6 1107,396.6    "/>
			<polygon points="1060.3,370.8 1060.3,370.8 1060.3,370.7    "/>
			<path d="M1128.5,346.6l-0.2,1.5L1128.5,346.6z"/>
			<path d="M1153.8,361c-14-1.5-25-7.2-25.6-12.8l-0.8,7c2.8,6,13.1,10.6,25.6,12c13.1,1.4,24.4-0.5,28-6.2l0.3-6.5     C1179,359.6,1167.3,362.5,1153.8,361z"/>
			<path d="M1153.8,361c-14-1.5-25-7.2-25.6-12.8l-0.8,7c2.8,6,13.1,10.6,25.6,12c13.1,1.4,24.4-0.5,28-6.2l0.3-6.5     C1179,359.6,1167.3,362.5,1153.8,361z"/>
			<path d="M1078.6,375c-14-1.5-25-7.2-25.6-12.8l-0.8,7c2.8,6,13.1,10.6,25.6,12c13.1,1.4,24.4-0.5,28-6.2l0.3-6.5     C1103.7,373.6,1092,376.5,1078.6,375z"/>
			<path d="M1174.1,342.7c-12.5-6.5-20.7-15.8-19.1-21.3l0.8-1.4l-4,7.6c0.2,3.7,2.8,7.9,7.2,12c11.6,1.7,20.8,6.3,22.6,11.2     c0,0.1,0,1.6,0,1.6c7.6,2.5,14.3,2.8,18,0l2.6-5.9C1198,350.5,1186.2,349,1174.1,342.7z"/>
			<path d="M1076.6,348.7c3.8,1.1,8.1,2.7,12.3,5c1.8,1,3.6,2.1,5.2,3.2c0.7,0.4,1.3,0.9,2,1.3c0.3,0.2,0.7,0.4,1,0.8     c2.5,0.7,4.8,1.1,7,1.3l0,0c3.5,0.2,6.5-0.3,8.6-1.7l2.7-5.9c-2,1.8-5.7,2.4-10.2,1.8c-0.1,0-0.3,0-0.4,0c-2-0.2-4-0.8-6.2-1.4     l0,0c-3.5-1.1-7.3-2.6-11.1-4.7c-5.2-2.8-9.7-6.1-12.9-9.4c-0.9-0.8-1.5-1.6-2.2-2.4c-1.7-2.1-2.9-4.1-3.5-6     c-0.8-0.1-1.4-0.1-2.2-0.2c-0.2,0-0.5,0-0.8,0l-2.1,1l-2.5,1.2c1.2,0.1,2.6,0.5,4,1.2C1065.9,338.6,1070.2,343.9,1076.6,348.7z"/>
			<path d="M1143.9,418.5l-0.1-0.1c-0.4-0.3-1-0.8-1.4-1.2c-1.8-1.5-3.5-3.2-4.7-4.7c-0.5-0.7-1.1-1.4-1.6-2.1     c-1.6-2.3-2.4-4.6-2.3-6.4c-0.1-0.1-0.2-0.1-0.3-0.2l-2.4,4.5c-3-1.5-6.2-3.5-9.2-5.9c-3.2-2.4-5.9-4.9-8.2-7.5     c-0.8-0.9-1.5-1.7-2.2-2.6c-0.5-0.7-1.1-1.4-1.5-2.1c-3.3-4.8-4.7-9.2-3.3-12.1l1-1.3l-2.6,3.3c0,0-1.8,3-1.6,3.2     c2.2,2.3,3.7,4.6,4.5,6.7c0.2,0.5,0.3,1.1,0.4,1.5c0.1,0.4,0.1,1,0.1,1.4c0,0.1,0,0.2,0,0.3l0,0l0,0l-1.1,2.4v0.1l-0.1,0.2     l-0.1,0.2c0.2,0.2,0.3,0.4,0.5,0.7c0.7,0.8,1.2,1.4,1.7,2.2c2.4,2.7,5.3,5.4,8.7,8.1c5.2,4,10.4,7,15.2,8.7     c0.5,0.8,1.1,1.5,1.7,2.3c1.5,1.8,3.5,3.7,5.8,5.4c-2.7,1.2-7,1.1-12-0.2c-3-0.8-6.4-2.1-9.9-3.7c-1-0.4-2-1-2.9-1.5     c-0.4-0.2-0.9-0.5-1.4-0.8c-1.7-1.1-3.5-2.2-5-3.3c-0.8-0.5-1.4-1.1-2.2-1.6c-3.4-2.7-6.2-5.5-8.2-8.3c2-0.2,3.7-0.8,5-1.7     l1.1-2.3l1.7-3.7c-1.2,1.2-3.3,1.8-5.7,2.1c-1.4,0.1-3,0-4.8-0.2c-0.5-0.1-1.1-0.2-1.6-0.2c-4.5-0.9-9.6-2.6-14.8-5.3     c-0.3-0.1-0.7-0.3-0.9-0.4c-1.7-1-3.4-2-5-2.9c-3.3-2.2-6.1-4.5-8.3-6.7c-4.4-4.4-6.5-8.8-5.5-11.9l-3.4,6.1c0,0.3,0.1,0.7,0.1,1     c0.2,1.4,0.8,2.9,1.6,4.4c-1-0.7-2-1.3-2.9-2.1c-4.7-3.5-8.6-7.3-11.3-11l-0.1,0.3c-1.1,1.2-2.8,1.8-5.1,2.3     c-0.9,0.1-1.7,0.2-2.6,0.2c-5.4,0.1-12.6-1.6-20.1-5.1c-0.1,0-0.2-0.1-0.3-0.1c-0.2-0.1-0.4-0.2-0.7-0.3     c-0.4-0.2-0.8-0.3-1.2-0.5c-3.4-1.7-6.4-3.7-9-5.7c-0.3-0.1-0.5-0.2-0.9-0.3l-5.4,2.6c1.5,1.2,3,2.6,4.8,4.1     c2.5,1.8,5.3,3.5,8.5,5.1c0.2,1,0.4,2,0.9,2.9c1.4,3.4,4.4,7.1,8.2,10.6l10.9,4.7l0.5,0.2h0.1l0.2,0.1l21.5,9.1     c1.2-0.2,2.2-0.5,3-1.2l2.5-4.7c-0.2-0.1-0.5-0.1-0.8-0.2c-5,2.3-15.6-0.2-26-6.6l-0.2,0.5l0.2-0.5c-0.1,0-0.2-0.1-0.2-0.1     c-0.3-0.2-0.7-0.4-1.1-0.7c-5.2-3.4-9.5-7.2-12.4-10.9c2.5,0.9,4.9,1.6,7.3,2.2c6.4,1.4,11.8,1.1,14.9-1.4v-0.1     c0-0.1-0.1-0.1-0.1-0.2c0.1,0,0.1,0.1,0.2,0.1v0.1c2,2.4,4.2,4.7,7,7c1,0.9,2.1,1.7,3.3,2.6c3.2,2.4,6.4,4.4,9.5,6l0.4-0.9     l0.3-0.7l-0.3,0.7l-0.4,0.9c0.2,0.1,0.4,0.2,0.7,0.3c2.6,1.3,5.1,2.3,7.5,2.8c0.5,0.1,1,0.2,1.5,0.3c1.1,0.7,2.2,1.4,3.3,2.1     c0.5,0.3,1.2,0.7,1.7,1c2.5,1.3,4.9,2.5,7.3,3.4c0.1,0,0.2,0.1,0.2,0.1c3.5,1.4,6.9,2.3,9.8,2.8c0.5,1.7,1.4,3.6,2.7,5.4     c0.5,0.8,1.1,1.5,1.7,2.3c1.8,2.2,4,4.2,6.6,6.3c2.1,1.6,4.4,3.2,6.7,4.6c0.3,0.2,0.7,0.4,1.1,0.7c0.2,0.1,0.3,0.2,0.5,0.3     c3.7,2.1,7.4,3.7,10.9,4.9c6.4,2.1,12.1,2.4,15.6,0.1l0.1-0.3l2-3.9c2.5,2,5.4,3.7,8.6,5.4c2.7,1.4,5.4,2.6,8.1,3.6     c0.1,0,0.2,0.1,0.3,0.1c0.9,0.3,1.7,0.7,2.6,0.9l0.5-0.3l6.9-4.1c-4.7-0.9-10.1-2.7-15.6-5.5     C1149.7,422.5,1146.6,420.4,1143.9,418.5z M1062.3,389.4c0-0.1,0-0.2,0-0.3C1062.3,389.1,1062.5,389.2,1062.3,389.4L1062.3,389.4     z M1112.9,421.8L1112.9,421.8l0.3-1L1112.9,421.8z"/>
			<polygon points="1193.3,315.7 1193.3,315.7 1193.2,314.3    "/>
			<path d="M1242.1,314.9c-4.5,3.4-12.1,6.2-20.9,7.3c-13.9,1.8-26-1-27.9-6.4l0.9,7c4.1,5.2,15.1,7.2,27.7,5.5     c12.3-1.6,22.4-5.9,25.2-11.6L1242.1,314.9z"/>
			<path d="M1193.2,314.2v0.1V314.2z"/>
		</g>
	</g>
	<g>
		<g>
			<g>
				<g>
					<g>
						<path fill="#DB7324" d="M644.3,587.7c-22.6-20.3-57.7-20.1-78.3,1.4c-20.7,22.2-19,57.3,3.6,77.5        c22.6,19.6,57.7,16.6,78.3-5.3C668.5,640,667,607.4,644.3,587.7z M639.3,592.8c19.6,17.2,21,45.5,3.2,64.1        c-18,19-48.3,21.4-68,4.4c-19.6-17.4-21-47.9-3.2-67C589.3,575.3,619.7,575.1,639.3,592.8z"/>
					</g>
				</g>
				<g>
					<path fill="#F5912F" d="M642.5,656.8c-18,19-48.3,21.4-68,4.4c-19.6-17.4-21-47.9-3.2-67c18-18.7,48.3-19,68-1.4       C659,609.8,660.4,638.2,642.5,656.8z"/>
				</g>
			</g>
			<g>
				<path fill="#FFFFFF" d="M621.5,625.6c5.3,1.8,8.4,5.3,6.9,12.3c-2,8.6-9,10.3-18.7,9.8l-1.1,9.2l-5.8-0.5l1.1-9.1      c-1.4-0.1-3-0.3-4.6-0.5l-1.1,9.2l-5.8-0.5l1.1-9.4c-1.3-0.1-2.7-0.3-4.1-0.4l-7.5-0.8l2-6.6c4.2,0.5,4.1,0.4,4.1,0.4      c1.6,0.2,2.2-0.9,2.4-1.6l1.7-14.8c0.2,0,0.4,0,0.7,0.1c-0.2-0.1-0.4-0.1-0.5-0.1l1.3-10.6c-0.1-1.2-0.7-2.6-3-2.9      c0,0,0.1-0.1-4.1-0.5l0.8-6l7.9,1.1c1.2,0.1,2.4,0.3,3.7,0.4l1.1-9.1l5.8,0.8l-1.1,8.9c1.5,0.1,3,0.3,4.6,0.5l1.1-8.8l5.8,0.8      l-1.1,9c7.4,1.5,13.1,4.5,12.8,11.1C627.5,621.8,625,624.4,621.5,625.6z M603.6,610.9l-1.3,11.2c3.3,0.4,13.4,2.3,14.1-3.9      C617.2,611.6,606.9,611.4,603.6,610.9z M601.6,627.7L600,640c3.9,0.4,16.1,2.5,17-4.5C617.9,628.4,605.5,628.1,601.6,627.7z"/>
			</g>
		</g>
	</g>
	<g>
		<g>
			<g>
				<g>
					<path fill="#B5A464" d="M668.8,668.7c-12.4,23.3-3.6,52.2,19.7,64.6c23.3,12.4,52.2,3.6,64.6-19.7       c12.4-23.3,3.6-52.2-19.7-64.6C710.2,636.6,681.2,645.4,668.8,668.7z M747.6,710.6c-10.8,20.2-35.9,27.9-56.1,17.1       c-20.2-10.8-27.9-35.9-17.1-56.1c10.8-20.2,35.9-27.9,56.1-17.1S758.4,690.5,747.6,710.6z"/>
				</g>
			</g>
			<g>
				<circle fill="#D8C175" cx="710.9" cy="691.1" r="41.5"/>
			</g>
		</g>
		<g>
			<path fill="#FFFFFF" stroke="#FFFFFF" stroke-width="4.1896" stroke-miterlimit="10" d="M692.3,714.6l-0.9-6.7l6.1-0.9l-3.6-26.5     l-6.1,0.9l-0.9-6.7l19-2.6c4-0.5,7.3-0.8,9.8-0.5c2.5,0.1,5,1,7.4,2.3c2.5,1.4,4.6,3.4,6.3,6.1c1.7,2.6,2.8,5.7,3.3,9.1     c0.3,2.8,0.2,5.5-0.3,8.2c-0.5,2.6-1.5,4.9-2.7,6.6c-1.2,1.7-2.7,3.2-4.5,4.4c-1.8,1.2-3.5,2-5.1,2.5c-1.6,0.4-4.1,1-7.5,1.4     L692.3,714.6z M708,705.6l2.5-0.3c3-0.4,5.4-1.1,7.1-2.2c1.6-1,2.9-2.6,3.7-4.8c0.8-2.2,1-4.8,0.5-8.1c-0.4-3-1.3-5.5-2.7-7.6     c-1.4-2-3-3.3-5-3.8s-4.4-0.7-7.3-0.2l-2.5,0.3L708,705.6z"/>
		</g>
	</g>
	<g>
		<g>
			<g>
				<g>
					<path fill="#9B9B9B" d="M807.4,622.6c5.4-18.5-5.1-37.8-23.6-43.2c-18.5-5.4-37.8,5.1-43.2,23.6c-5.4,18.5,5.1,37.8,23.6,43.2       C782.6,651.6,802,641.1,807.4,622.6z M745,604.3c4.7-16,21.5-25.2,37.5-20.5c16,4.8,25.2,21.5,20.5,37.5       c-4.7,16-21.5,25.2-37.5,20.5C749.4,637.1,740.3,620.3,745,604.3z"/>
				</g>
			</g>
			<g>
				<circle fill="#B5B5B5" cx="774" cy="612.8" r="30.2"/>
			</g>
		</g>
		<g>
			<polygon fill="#FFFFFF" points="769.7,595.6 777.5,595.1 772.9,623.8 789.7,622.9 788.7,629.5 764.1,630.7    "/>
			<polygon fill="#FFFFFF" points="762.7,618.3 762,623.8 783.9,607.1 784.9,601.5    "/>
		</g>
	</g>
	<g opacity="0.35">
		<g>
			<g>
				<g>
					<path fill="#FFFFFF" d="M1325.2,878.5c11.4,0,22.3,3.5,31.6,10.2c24.3,17.4,29.8,51.4,12.4,75.6       c-10.1,14.1-26.7,22.5-44.1,22.5c-11.4,0-22.3-3.5-31.6-10.2c-24.3-17.4-29.8-51.4-12.4-75.6       C1291.4,886.8,1307.8,878.5,1325.2,878.5 M1325.1,982c15.9,0,30.9-7.7,40.3-20.6c15.9-22.2,10.9-53.1-11.3-69.1       c-8.5-6.1-18.4-9.4-28.8-9.2c-15.9,0-30.9,7.7-40.3,20.6c-15.9,22.2-10.9,53.1,11.3,69.1C1304.8,978.9,1314.8,982,1325.1,982        M1325.2,877.2c-17.3,0-34.3,8.1-45,23.1c-17.8,24.9-12.2,59.5,12.6,77.5c9.8,7.1,21.1,10.4,32.3,10.4c17.3,0,34.3-8.1,45-23.1       c17.8-24.9,12.2-59.5-12.6-77.5C1347.7,880.5,1336.4,877.2,1325.2,877.2L1325.2,877.2z M1325.1,980.7c-9.7,0-19.6-2.9-28.1-9       c-21.5-15.6-26.5-45.6-11-67.2c9.4-13.1,24.2-20,39.2-20c9.7,0,19.6,2.9,28.1,9c21.5,15.6,26.5,45.6,11,67.2       C1354.8,973.8,1340.1,980.7,1325.1,980.7L1325.1,980.7z"/>
				</g>
			</g>
			<g>
				<circle fill="#FFFFFF" cx="1325.1" cy="932.5" r="48.2"/>
			</g>
		</g>
	</g>
	<g opacity="0.35">
		<g>
			<g>
				<g>
					<path fill="#FFFFFF" d="M1353.8,669.2c9.4,0,18.3,2.9,25.9,8.4c19.9,14.4,24.5,42.2,10.1,62.1c-8.4,11.6-21.9,18.5-36.2,18.5       c-9.4,0-18.3-2.9-25.9-8.4c-19.9-14.4-24.5-42.2-10.1-62.1C1326,676.1,1339.5,669.2,1353.8,669.2 M1353.7,754.4       c13.1,0,25.5-6.3,33.1-17c13.1-18.2,8.9-43.7-9.2-56.8c-7-5-15.1-7.6-23.7-7.6c-13.1,0-25.5,6.3-33.1,17       c-13.1,18.2-8.9,43.7,9.2,56.8C1337,751.8,1345.1,754.4,1353.7,754.4 M1353.8,668.2c-14.1,0-28.2,6.6-37.1,19       c-14.7,20.5-10,49,10.4,63.6c8.1,5.8,17.4,8.6,26.5,8.6c14.1,0,28.2-6.6,37.1-19c14.7-20.5,10-49-10.4-63.6       C1372.3,670.9,1363,668.2,1353.8,668.2L1353.8,668.2z M1353.7,753.3c-8.1,0-16.1-2.4-23.1-7.4c-17.7-12.7-21.8-37.5-9-55.3       c7.7-10.8,19.9-16.5,32.2-16.5c8.1,0,16.1,2.4,23.1,7.4c17.7,12.7,21.8,37.5,9,55.3C1378.2,747.6,1366,753.3,1353.7,753.3       L1353.7,753.3z"/>
				</g>
			</g>
			<g>
				<circle fill="#FFFFFF" cx="1353.7" cy="713.7" r="39.6"/>
			</g>
		</g>
	</g>
	<g opacity="0.35">
		<g>
			<g>
				<g>
					<path fill="#FFFFFF" d="M1444.8,837.6c4,0,8.1,0.7,12,2.1c9.1,3.2,16.4,9.7,20.7,18.4c4.2,8.7,4.8,18.5,1.5,27.6       c-5.1,14.5-18.8,24.3-34.2,24.3c-4,0-8.1-0.7-12-2.1c-18.8-6.5-28.8-27.2-22.2-46C1415.7,847.4,1429.4,837.6,1444.8,837.6        M1444.8,906.8c14,0,26.5-8.9,31.2-22.2c6-17.2-3.2-36.1-20.3-42.1c-3.5-1.2-7.2-1.8-10.9-1.8c-14,0-26.5,8.9-31.2,22.2       c-6,17.2,3.2,36.1,20.3,42.1C1437.5,906.2,1441.1,906.8,1444.8,906.8 M1444.8,836.7c-15.3,0-29.7,9.6-35,24.8       c-6.7,19.4,3.5,40.5,22.7,47.2c4,1.4,8.2,2.1,12.2,2.1c15.3,0,29.7-9.6,35-24.8c6.7-19.4-3.5-40.5-22.7-47.2       C1452.9,837.3,1448.9,836.7,1444.8,836.7L1444.8,836.7z M1444.8,905.9c-3.5,0-7.1-0.5-10.6-1.8c-16.8-5.9-25.6-24.2-19.8-41       c4.7-13.3,17.1-21.5,30.4-21.5c3.5,0,7.1,0.5,10.6,1.8c16.8,5.9,25.6,24.2,19.8,41C1470.6,897.6,1458.2,905.9,1444.8,905.9       L1444.8,905.9z"/>
				</g>
			</g>
			<g>
				<circle fill="#FFFFFF" cx="1444.8" cy="873.8" r="32.2"/>
			</g>
		</g>
	</g>
	<g opacity="0.35">
		<g>
			<g>
				<g>
					<path fill="#FFFFFF" d="M1438.8,31.7c9.4,0,18.3,2.9,25.9,8.4c9.7,7,16,17.2,18,28.9c2,11.8-0.9,23.5-7.8,33.2       c-8.4,11.6-21.9,18.5-36.2,18.5c-9.4,0-18.3-2.9-25.9-8.4c-19.9-14.4-24.5-42.2-10.1-62.1C1410.9,38.6,1424.5,31.7,1438.8,31.7        M1438.8,116.9c13.1,0,25.5-6.3,33.1-17c13.1-18.2,8.9-43.7-9.2-56.8c-7-5-15.1-7.6-23.7-7.6c-13.1,0-25.5,6.3-33.1,17       c-6.3,8.8-8.9,19.6-7.1,30.4c1.8,10.8,7.6,20.1,16.4,26.4C1422,114.2,1430.2,116.9,1438.8,116.9 M1438.8,30.6       c-14.1,0-28.2,6.6-37.1,19c-14.7,20.5-10,49,10.4,63.6c8.1,5.8,17.4,8.6,26.5,8.6c14.1,0,28.2-6.6,37.1-19       c14.7-20.5,10-49-10.4-63.6C1457.4,33.4,1448,30.6,1438.8,30.6L1438.8,30.6z M1438.8,115.8c-8.1,0-16.1-2.4-23.1-7.4       c-17.7-12.7-21.8-37.5-9-55.3c7.7-10.8,19.9-16.5,32.2-16.5c8.1,0,16.1,2.4,23.1,7.4c17.7,12.7,21.8,37.5,9,55.3       C1463.3,110.1,1451.1,115.8,1438.8,115.8L1438.8,115.8z"/>
				</g>
			</g>
			<g>
				<path fill="#FFFFFF" d="M1438.8,115.2c-8.2,0-16.1-2.5-22.7-7.4c-8.5-6.1-14-15.1-15.8-25.4c-1.7-10.2,0.8-20.7,6.9-29.1      c7.3-10.2,19.1-16.2,31.8-16.2c8.2,0,16.1,2.5,22.7,7.3c8.5,6.1,14,15.1,15.8,25.4s-0.8,20.7-6.9,29.1      C1463.2,109.1,1451.3,115.2,1438.8,115.2L1438.8,115.2z"/>
				<g>
					<path fill="#FFFFFF" d="M1438.8,37.6c8.1,0,15.9,2.5,22.4,7.3c17.2,12.4,21.2,36.6,8.8,53.7c-7.2,10-18.9,16-31.3,16       c-8.1,0-15.9-2.5-22.4-7.3c-8.4-6-13.8-14.9-15.6-25c-1.6-10.1,0.8-20.3,6.7-28.7C1414.8,43.6,1426.5,37.6,1438.8,37.6        M1438.8,36.6c-12.3,0-24.5,5.8-32.2,16.5c-12.7,17.7-8.7,42.5,9,55.3c7,5,15.1,7.4,23.1,7.4c12.3,0,24.5-5.8,32.2-16.5       c12.7-17.7,8.7-42.5-9-55.3C1454.9,39.1,1446.9,36.6,1438.8,36.6L1438.8,36.6z"/>
				</g>
			</g>
		</g>
	</g>
	<g opacity="0.35">
		<g>
			<g>
				<g>
					<path fill="#FFFFFF" d="M577.1,293.5c6,0,11.6,1.8,16.4,5.3c12.6,9.1,15.6,26.8,6.4,39.4c-5.3,7.4-13.9,11.8-23,11.8       c-6,0-11.6-1.8-16.4-5.3c-6.1-4.4-10.2-10.9-11.4-18.4c-1.2-7.4,0.5-14.9,4.9-21.1C559.5,298,567.9,293.5,577.1,293.5        M577.1,347.7c8.3,0,16.1-4,21-10.8c4-5.5,5.7-12.4,4.5-19.3c-1.1-6.9-4.8-12.7-10.4-16.8c-4.5-3.2-9.6-4.9-15-4.9       c-8.3,0-16.1,4-21,10.8c-8.3,11.5-5.7,27.7,5.9,36C566.4,346,571.6,347.7,577.1,347.7 M577.1,292.9c-9,0-17.8,4.1-23.5,12.1       c-9.4,12.9-6.4,31.1,6.6,40.4c5.1,3.7,11,5.4,16.9,5.4c9,0,17.8-4.1,23.5-12.1c9.4-12.9,6.4-31.1-6.6-40.4       C588.8,294.6,583,292.9,577.1,292.9L577.1,292.9z M577.1,347c-5.1,0-10.2-1.5-14.7-4.7c-11.3-8.1-13.8-23.8-5.8-35       c4.9-6.9,12.6-10.4,20.5-10.4c5.1,0,10.2,1.5,14.7,4.7c11.3,8.1,13.8,23.8,5.8,35C592.5,343.4,584.8,347,577.1,347L577.1,347z"/>
				</g>
			</g>
			<g>
				<path fill="#FFFFFF" d="M577.1,346.6c-5.2,0-10.2-1.6-14.5-4.7c-11.1-7.9-13.6-23.5-5.7-34.6c4.7-6.4,12.2-10.3,20.1-10.3      c5.2,0,10.2,1.6,14.5,4.7c5.3,3.9,8.9,9.6,10,16.1c1.1,6.5-0.4,13.1-4.4,18.5C592.5,342.8,585,346.6,577.1,346.6L577.1,346.6z"/>
				<g>
					<path fill="#FFFFFF" d="M577.1,297.5c5.1,0,10,1.6,14.3,4.6c5.3,3.8,8.8,9.5,9.9,15.9c1.1,6.4-0.4,12.9-4.2,18.2       c-4.6,6.4-12,10.2-19.9,10.2c-5.1,0-10-1.6-14.3-4.6c-11-7.8-13.5-23.2-5.5-34.1C561.7,301.3,569.3,297.5,577.1,297.5        M577.1,296.7c-7.8,0-15.6,3.6-20.5,10.4c-8.1,11.3-5.5,27,5.8,35c4.5,3.2,9.6,4.7,14.7,4.7c7.8,0,15.6-3.6,20.5-10.4       c8.1-11.3,5.5-27-5.8-35C587.3,298.2,582.2,296.7,577.1,296.7L577.1,296.7z"/>
				</g>
			</g>
		</g>
	</g>
	<g opacity="0.35">
		<g>
			<g>
				<g>
					<path fill="#FFFFFF" d="M1506.4,98c6,0,11.6,1.8,16.4,5.3c6.1,4.4,10.2,10.9,11.4,18.4c1.2,7.4-0.5,14.9-4.9,21.1       c-5.3,7.4-13.9,11.8-23,11.8c-6,0-11.6-1.8-16.4-5.3c-12.6-9.1-15.6-26.8-6.4-39.4C1488.6,102.5,1497.2,98,1506.4,98        M1506.3,152.1c8.3,0,16.1-4,21-10.8c8.3-11.5,5.7-27.7-5.9-36c-4.5-3.2-9.6-4.9-15-4.9c-8.3,0-16.1,4-21,10.8       c-8.3,11.5-5.7,27.7,5.9,36C1495.7,150.5,1500.9,152.1,1506.3,152.1 M1506.4,97.4c-9,0-17.8,4.1-23.5,12.1       c-9.4,12.9-6.4,31.1,6.6,40.4c5.1,3.7,11,5.4,16.9,5.4c9,0,17.8-4.1,23.5-12.1c9.4-12.9,6.4-31.1-6.6-40.4       C1518.1,99.1,1512.2,97.4,1506.4,97.4L1506.4,97.4z M1506.3,151.5c-5.1,0-10.2-1.5-14.7-4.7c-11.3-8.1-13.8-23.8-5.8-35       c4.9-6.9,12.6-10.4,20.5-10.4c5.1,0,10.2,1.5,14.7,4.7c11.3,8.1,13.8,23.8,5.8,35C1521.8,147.9,1514.1,151.5,1506.3,151.5       L1506.3,151.5z"/>
				</g>
			</g>
			<g>
				<path fill="#FFFFFF" d="M1506.3,151.1c-5.2,0-10.2-1.6-14.5-4.7c-11.1-7.9-13.6-23.5-5.7-34.6c4.7-6.4,12.2-10.3,20.1-10.3      c5.2,0,10.2,1.6,14.5,4.7c5.3,3.9,8.9,9.6,10,16.1c1.1,6.5-0.4,13.1-4.4,18.5C1521.8,147.3,1514.3,151.1,1506.3,151.1      L1506.3,151.1z"/>
				<g>
					<path fill="#FFFFFF" d="M1506.4,101.9c5.1,0,10,1.6,14.3,4.6c11,7.8,13.5,23.2,5.5,34.1c-4.6,6.4-12,10.2-19.9,10.2       c-5.1,0-10-1.6-14.3-4.6c-11-7.8-13.5-23.2-5.5-34.1C1491,105.8,1498.5,101.9,1506.4,101.9 M1506.4,101.2       c-7.8,0-15.6,3.6-20.5,10.4c-8.1,11.3-5.5,27,5.8,35c4.5,3.2,9.6,4.7,14.7,4.7c7.8,0,15.6-3.6,20.5-10.4       c8.1-11.3,5.5-27-5.8-35C1516.6,102.7,1511.5,101.2,1506.4,101.2L1506.4,101.2z"/>
				</g>
			</g>
		</g>
	</g>
	<g opacity="0.35">
		<g>
			<g>
				<g>
					<path fill="#FFFFFF" d="M1511.7,46.2c4.4,0,8.6,1.3,12.2,3.9c4.6,3.3,7.5,8.1,8.4,13.6c0.9,5.5-0.4,11-3.7,15.6       c-3.9,5.4-10.2,8.7-17,8.7c-4.4,0-8.6-1.3-12.2-3.9c-4.6-3.3-7.5-8.1-8.4-13.6c-0.9-5.5,0.4-11,3.7-15.6       C1498.6,49.5,1505.1,46.2,1511.7,46.2 M1511.7,86.2c6.1,0,12-2.9,15.4-7.9c2.9-4.1,4.1-9.1,3.4-14.3c-0.8-5.1-3.6-9.5-7.7-12.4       c-3.3-2.4-7.1-3.6-11.1-3.6c-6.1,0-12,2.9-15.4,7.9c-6.1,8.5-4.1,20.5,4.4,26.7C1503.9,84.9,1507.7,86.2,1511.7,86.2        M1511.7,45.7c-6.6,0-13.2,3-17.4,8.9c-6.9,9.6-4.7,23,4.9,29.8c3.8,2.7,8.2,4,12.5,4c6.6,0,13.2-3,17.4-8.9       c6.9-9.6,4.7-23-4.9-29.8C1520.4,47,1516,45.7,1511.7,45.7L1511.7,45.7z M1511.7,85.6c-3.7,0-7.5-1.1-10.8-3.5       c-8.4-6-10.2-17.6-4.2-25.9c3.6-5,9.4-7.7,15.1-7.7c3.7,0,7.5,1.1,10.8,3.5c8.4,6,10.2,17.6,4.2,25.9       C1523.1,83,1517.5,85.6,1511.7,85.6L1511.7,85.6z"/>
				</g>
			</g>
			<g>
				<path fill="#FFFFFF" d="M1511.7,85.4c-3.8,0-7.5-1.2-10.7-3.5c-3.9-2.8-6.6-7.1-7.4-11.9s0.3-9.7,3.2-13.6      c3.5-4.8,9-7.6,14.9-7.6c3.8,0,7.5,1.2,10.7,3.5c3.9,2.8,6.6,7.1,7.4,11.9s-0.3,9.7-3.2,13.6      C1523.1,82.6,1517.6,85.4,1511.7,85.4L1511.7,85.4z"/>
				<g>
					<path fill="#FFFFFF" d="M1511.7,49.1c3.8,0,7.4,1.2,10.6,3.4c3.9,2.8,6.5,7,7.3,11.8s-0.3,9.6-3.2,13.5       c-3.4,4.7-8.9,7.5-14.7,7.5c-3.8,0-7.4-1.2-10.6-3.4c-8.1-5.8-9.9-17.1-4.1-25.2C1500.5,51.8,1505.9,49.1,1511.7,49.1        M1511.7,48.5c-5.8,0-11.4,2.7-15.1,7.7c-6,8.4-4.1,19.9,4.2,25.9c3.3,2.4,7.1,3.5,10.8,3.5c5.8,0,11.4-2.7,15.1-7.7       c6-8.4,4.1-19.9-4.2-25.9C1519.3,49.6,1515.5,48.5,1511.7,48.5L1511.7,48.5z"/>
				</g>
			</g>
		</g>
	</g>
</g>
<g id="Layer_4">
	<g>
		<line fill="none" stroke="#1A7096" stroke-miterlimit="10" x1="609.3" y1="279" x2="694.5" y2="161.7"/>
		<line fill="none" stroke="#1A7096" stroke-miterlimit="10" x1="637.1" y1="282.6" x2="748.2" y2="244.8"/>
		<line fill="none" stroke="#1A7096" stroke-miterlimit="10" x1="854.3" y1="119.6" x2="950.3" y2="-79.9"/>
		<line fill="none" stroke="#1A7096" stroke-miterlimit="10" x1="1080.4" y1="281.9" x2="959.9" y2="-61.9"/>
		<line fill="none" stroke="#1A7096" stroke-miterlimit="10" x1="1060.1" y1="303.7" x2="848.3" y2="227"/>
		<line fill="none" stroke="#1A7096" stroke-miterlimit="10" x1="1257.1" y1="281.9" x2="1400.7" y2="117.7"/>
		<line fill="none" stroke="#1A7096" stroke-miterlimit="10" x1="1400.7" y1="45.8" x2="814.5" y2="64.5"/>
		<line fill="none" stroke="#1A7096" stroke-miterlimit="10" x1="1384.2" y1="751.4" x2="1422.7" y2="832.3"/>
		<line fill="none" stroke="#1A7096" stroke-miterlimit="10" x1="1344.4" y1="765.9" x2="1337.2" y2="862.8"/>
		<line fill="none" stroke="#1A7096" stroke-miterlimit="10" x1="1287.1" y1="715.5" x2="975" y2="762.4"/>
		<line fill="none" stroke="#1A7096" stroke-miterlimit="10" x1="943.3" y1="736.6" x2="1000.9" y2="422.8"/>
		<line fill="none" stroke="#1A7096" stroke-miterlimit="10" x1="1276.7" y1="282.6" x2="1477.6" y2="152"/>
		<line fill="none" stroke="#1A7096" stroke-miterlimit="10" x1="1094.1" y1="458.7" x2="960.1" y2="731.6"/>
		<line fill="none" stroke="#1A7096" stroke-miterlimit="10" x1="972.1" y1="337.4" x2="836.4" y2="236.8"/>
	</g>
</g>
</svg>